<svg xmlns="http://www.w3.org/2000/svg" width="33" height="30" viewBox="0 0 33 30">
  <g fill="#FFF" transform="translate(.882)">
    <path d="M13.8130456,15.4637695 L13.8130456,15.2436106 C13.8130456,14.7554322 13.4782032,14.516129 12.7750342,14.516129 L11.6812158,14.516129 L11.6812158,17.7419355 L12.797357,17.7419355 C13.5116875,17.7419355 13.8911755,17.5313487 13.8911755,16.9283048 L13.8911755,16.717718 C13.8911755,16.3156887 13.6456244,16.1146741 13.2438136,16.0476692 C13.5786559,15.9806643 13.8130456,15.808366 13.8130456,15.4637695 Z M12.551806,15.0521681 L12.6857429,15.0521681 C12.8754869,15.0521681 12.9647782,15.1000287 12.9647782,15.3201876 L12.9647782,15.5212023 C12.9647782,15.731789 12.8866484,15.7987939 12.6857429,15.7987939 L12.551806,15.7987939 L12.551806,15.0521681 Z M12.9982625,16.8612999 C12.9982625,17.1101752 12.9201326,17.1963243 12.6969043,17.1963243 L12.6969043,17.2058964 L12.5406446,17.2058964 L12.5406446,16.3061166 L12.6857429,16.3061166 C12.9089712,16.3061166 12.9982625,16.3731215 12.9982625,16.6315689 L12.9982625,16.8612999 L12.9982625,16.8612999 Z"/>
    <polygon points="15.746 15.111 15.746 14.516 14.207 14.516 14.207 17.742 15.785 17.742 15.785 17.137 14.991 17.137 14.991 16.331 15.589 16.331 15.589 15.764 14.991 15.764 14.991 15.111"/>
    <path d="M16.1011352,16.6414212 L16.1011352,16.7545582 C16.1011352,17.4745208 16.5408721,17.7419355 17.2173904,17.7419355 C17.9277346,17.7419355 18.311095,17.4128097 18.311095,16.7751286 L18.311095,16.7031323 C18.311095,16.0243104 17.8939087,15.7980365 17.4654471,15.540907 C17.1497386,15.3557737 17.0257102,15.2837775 17.0257102,15.0575035 L17.0257102,15.0369331 C17.0257102,14.8723703 17.0820868,14.800374 17.2061151,14.800374 C17.3188682,14.800374 17.4090706,14.8517999 17.4090706,15.0780739 L17.4090706,15.2220664 L18.2547185,15.2220664 L18.2547185,15.1089294 C18.2434432,14.4815334 17.8713581,14.1935484 17.1948398,14.1935484 C16.5183215,14.1935484 16.1349612,14.5021038 16.1349612,15.0986442 L16.1349612,15.1192146 C16.1349612,15.6848995 16.3942932,15.9523142 16.9129572,16.2608696 C17.2061151,16.4357176 17.4090706,16.5385694 17.4090706,16.8059841 L17.4090706,16.8471248 C17.4090706,17.0322581 17.3526941,17.1145395 17.2061151,17.1145395 C17.0482608,17.1145395 16.980609,17.0425432 16.980609,16.7854137 L16.980609,16.6414212 L16.1011352,16.6414212 Z"/>
    <polygon points="18.851 17.742 19.666 17.742 19.666 15.111 20.205 15.111 20.205 14.516 18.311 14.516 18.311 15.111 18.851 15.111"/>
    <path d="M6.80939976 18.3870968C6.1594116 18.3870968 5.68275362 18.7245515 5.68275362 19.4403644L5.68275362 20.8617644C5.68275362 21.5878033 6.11607905 21.925258 6.80939976 21.9354839 7.47022105 21.9354839 7.89271336 21.6389328 7.89271336 20.9231198L7.89271336 20.8208608 7.04772875 20.8208608 7.04772875 20.9231198C7.04772875 21.1889932 6.96106366 21.2708004 6.80939976 21.2708004 6.62523645 21.2708004 6.56023763 21.1685414 6.56023763 20.8822162L6.56023763 19.4096867C6.56023763 19.1335874 6.63606958 19.0415543 6.79856662 19.0415543 6.96106366 19.0415543 7.02606248 19.1131356 7.02606248 19.379009L7.02606248 19.4403644 7.89271336 19.4403644 7.89271336 19.3994608C7.88188022 18.6427443 7.45938792 18.3870968 6.80939976 18.3870968zM10.4183816 20.8719903L10.4183816 19.4301385C10.4183816 18.6836479 9.97013508 18.3870968 9.31340176 18.3870968 8.68794146 18.3870968 8.20842189 18.7040997 8.20842189 19.4301385L8.20842189 20.8822162C8.20842189 21.6082551 8.63581976 21.925258 9.31340176 21.9354839 9.98055942 21.9354839 10.4183816 21.6082551 10.4183816 20.8719903zM9.06321764 20.8719903L9.06321764 19.4096867C9.06321764 19.1335874 9.14661234 19.0313284 9.31340176 19.0313284 9.48019117 19.0313284 9.56358588 19.1335874 9.56358588 19.4096867L9.56358588 20.8719903C9.56358588 21.1583155 9.48019117 21.2605745 9.31340176 21.2605745 9.14661234 21.2605745 9.06321764 21.1583155 9.06321764 20.8719903z"/>
    <polygon points="12.239 21.613 12.711 19.702 12.711 21.613 13.575 21.613 13.575 18.387 12.464 18.387 12.149 19.885 11.823 18.387 10.734 18.387 10.734 21.613 11.487 21.613 11.487 19.702 11.958 21.613"/>
    <path d="M13.8911755 21.6129032L14.6763574 21.6129032 14.6763574 20.3552227 14.8333937 20.3552227C15.5007983 20.3552227 15.7854267 20.1440092 15.7854267 19.577573L15.7854267 19.2127496C15.7854267 18.6655146 15.5596869 18.3870968 14.8137642 18.3870968L13.8911755 18.3870968 13.8911755 21.6129032 13.8911755 21.6129032zM14.6763574 18.953533L14.7941346 18.953533C14.9708005 18.953533 15.0296892 19.0207373 15.0296892 19.2223502L15.0296892 19.5487711C15.0296892 19.7599846 14.9609858 19.8271889 14.7941346 19.8271889L14.7941346 19.8175883 14.6763574 19.8175883 14.6763574 18.953533zM16.5254591 21.6129032L16.6065585 20.9888633 17.0931552 20.9888633 17.1742546 21.6129032 17.9953864 21.6129032 17.4682401 18.3870968 16.3125731 18.3870968 15.7854267 21.6129032 16.5254591 21.6129032zM16.8498569 19.078341L17.0221932 20.4608295 16.6673831 20.4608295 16.8498569 19.078341z"/>
    <polygon points="20.521 18.387 19.77 18.387 19.77 19.971 19.223 18.387 18.311 18.387 18.311 21.613 19.051 21.613 19.051 19.731 19.716 21.613 20.521 21.613"/>
    <polygon points="20.837 18.387 21.784 18.387 21.784 21.613 20.837 21.613"/>
    <polygon points="22.884 20.202 23.482 20.202 23.482 19.635 22.884 19.635 22.884 18.982 23.639 18.982 23.639 18.387 22.1 18.387 22.1 21.613 23.678 21.613 23.678 21.008 22.884 21.008"/>
    <path d="M25.3581605,19.7344554 C25.0424519,19.5493221 24.9184236,19.4773259 24.9184236,19.2510519 L24.9184236,19.2304815 C24.9184236,19.0659187 24.9748001,18.9939224 25.0988285,18.9939224 C25.2115815,18.9939224 25.301784,19.0453483 25.301784,19.2716223 L25.301784,19.4156148 L26.1474318,19.4156148 L26.1474318,19.3024778 C26.1361565,18.6750818 25.7640715,18.3870968 25.0875532,18.3870968 C24.4110349,18.3870968 24.0276745,18.6956522 24.0276745,19.2921926 L24.0276745,19.312763 C24.0276745,19.8784479 24.2870065,20.1458626 24.8056705,20.454418 C25.0988285,20.629266 25.301784,20.7321178 25.301784,20.9995325 L25.301784,21.0406732 C25.301784,21.2258065 25.2454074,21.3080879 25.0988285,21.3080879 C24.9409742,21.3080879 24.8733224,21.2360916 24.8733224,20.9789621 L24.8733224,20.8349696 L23.9938486,20.8349696 L23.9938486,20.9481066 C23.9938486,21.6680692 24.4335855,21.9354839 25.1101038,21.9354839 C25.820448,21.9354839 26.2038083,21.6063581 26.2038083,20.968677 L26.2038083,20.8966807 C26.2038083,20.2178588 25.7866221,19.9915849 25.3581605,19.7344554 Z"/>
    <polygon points="8.84 22.619 9.194 22.619 9.206 22.619 9.206 24.194 9.749 24.194 9.749 22.619 10.103 22.619 10.103 22.258 8.84 22.258"/>
    <path d="M10.7340902,22.2580645 C10.3718017,22.2580645 10.1026731,22.4331334 10.1026731,22.8319014 L10.1026731,23.6294375 C10.1026731,24.0184795 10.3510995,24.1935484 10.7340902,24.1935484 C11.1170808,24.1935484 11.3655072,24.0087534 11.3655072,23.6099854 L11.3655072,22.8221754 C11.3655072,22.4136813 11.1067297,22.2580645 10.7340902,22.2580645 Z M10.8790056,23.6197115 C10.8790056,23.7850543 10.8272501,23.8336846 10.7340902,23.8336846 C10.6305792,23.8336846 10.5891748,23.7753283 10.5891748,23.6197115 L10.5891748,22.8221754 C10.5891748,22.6762846 10.6409303,22.6179284 10.7340902,22.6179284 C10.8272501,22.6179284 10.8790056,22.6762846 10.8790056,22.8221754 L10.8790056,23.6197115 Z"/>
    <polygon points="13.321 23.401 13.138 22.258 12.783 22.258 12.61 23.391 12.492 22.258 11.997 22.258 12.277 24.194 12.793 24.194 12.966 23.141 13.138 24.194 13.611 24.194 13.891 22.258 13.439 22.258"/>
    <path d="M14.206884 22.8319014L14.206884 23.6294375C14.206884 24.0184795 14.4553104 24.1935484 14.8383011 24.1935484 15.2212918 24.1935484 15.4697182 24.0087534 15.4697182 23.6099854L15.4697182 22.8221754C15.4697182 22.4136813 15.2109407 22.2580645 14.8383011 22.2580645 14.4760126 22.2580645 14.206884 22.4331334 14.206884 22.8319014zM14.9832165 22.8221754L14.9832165 23.6197115C14.9832165 23.7850543 14.931461 23.8336846 14.8383011 23.8336846 14.7347901 23.8336846 14.6933857 23.7753283 14.6933857 23.6197115L14.6933857 22.8221754C14.6933857 22.6762846 14.7451412 22.6179284 14.8383011 22.6179284 14.931461 22.6179284 14.9832165 22.6762846 14.9832165 22.8221754zM17.0482608 24.1935484L16.8021152 23.3355504C16.930539 23.2657133 16.9947509 23.1659461 16.9947509 22.956435L16.9947509 22.7469238C16.9947509 22.4176921 16.8449231 22.2580645 16.3847378 22.2580645L15.7961287 22.2580645 15.7854267 22.2580645 15.7854267 24.1935484 16.277718 24.1935484 16.277718 23.4053874 16.3419299 23.4053874 16.5452676 24.1935484 17.0482608 24.1935484zM16.5345656 22.9464583C16.5345656 23.0761556 16.4810557 23.1160625 16.3740358 23.1160625L16.299122 23.1160625 16.299122 22.6072498 16.3847378 22.6072498C16.4917577 22.6072498 16.5345656 22.6571334 16.5345656 22.7668773L16.5345656 22.9464583 16.5345656 22.9464583z"/>
    <polygon points="17.924 23.151 18.291 22.258 17.822 22.258 17.517 23.02 17.517 22.258 17.048 22.258 17.048 24.194 17.517 24.194 17.517 23.351 17.812 24.194 18.311 24.194"/>
    <polygon points="20.205 22.619 20.205 22.258 19.269 22.258 19.258 22.258 19.258 24.194 19.737 24.194 19.737 23.451 20.122 23.451 20.122 23.1 19.737 23.1 19.737 22.619"/>
    <path d="M20.8367633 22.2580645C20.4744748 22.2580645 20.2053462 22.4331334 20.2053462 22.8319014L20.2053462 23.6294375C20.2053462 24.0184795 20.4537726 24.1935484 20.8367633 24.1935484 21.2197539 24.1935484 21.4681803 24.0087534 21.4681803 23.6099854L21.4681803 22.8221754C21.4681803 22.4136813 21.2094028 22.2580645 20.8367633 22.2580645zM20.9816787 23.6197115C20.9816787 23.7850543 20.9299232 23.8336846 20.8367633 23.8336846 20.7332523 23.8336846 20.6918479 23.7753283 20.6918479 23.6197115L20.6918479 22.8221754C20.6918479 22.6762846 20.7436034 22.6179284 20.8367633 22.6179284 20.9299232 22.6179284 20.9816787 22.6762846 20.9816787 22.8221754L20.9816787 23.6197115zM22.9927557 22.956435L22.9927557 22.7469238C22.9927557 22.4176921 22.8416474 22.2580645 22.3775288 22.2580645L21.7838889 22.2580645 21.7838889 24.1935484 22.2803878 24.1935484 22.2803878 23.4053874 22.3451485 23.4053874 22.5502241 24.1935484 23.046723 24.1935484 22.7984736 23.3355504C22.927995 23.2657133 22.9927557 23.1659461 22.9927557 22.956435zM22.5178437 22.9464583C22.5178437 23.0761556 22.4638765 23.1160625 22.3559419 23.1160625L22.2803878 23.1160625 22.2803878 22.6072498 22.3667354 22.6072498C22.4746699 22.6072498 22.5178437 22.6571334 22.5178437 22.7668773L22.5178437 22.9464583 22.5178437 22.9464583zM12.8420027 25.1612903C12.1165109 25.1612903 11.7593457 25.5036786 11.7593457 26.1677042L11.7593457 26.1988304 12.607613 26.1988304 12.607613 26.1573288C12.607613 25.8979438 12.6745815 25.825316 12.8085185 25.825316 12.931294 25.825316 12.9871011 25.8979438 12.9871011 26.1054518L12.9871011 26.240332C12.9871011 26.5827202 12.8643255 26.8421053 12.5071603 27.3816261L11.6812158 28.6059234 11.6923772 28.6059234 11.6923772 28.7096774 13.8911755 28.7096774 13.8911755 28.0560272 13.0205853 28.0560272 13.3331049 27.5891341C13.7237543 26.9873609 13.8911755 26.6449726 13.8911755 26.2092058L13.8911755 26.0639502C13.8911755 25.4933032 13.5674945 25.1612903 12.8420027 25.1612903zM14.9961554 25.1612903C14.3678335 25.1612903 13.8911755 25.4791865 13.8911755 26.2072713L13.8911755 27.6736955C13.8911755 28.4222897 14.3245009 28.7196764 14.9853222 28.7094217 15.6569767 28.7094217 16.1011352 28.3915255 16.1011352 27.6429314L16.1011352 26.1970165C16.1011352 25.4381676 15.6353104 25.1612903 14.9961554 25.1612903zM15.2344844 27.6634408C15.2344844 27.9505728 15.1586524 28.05312 14.9961554 28.0633747 14.8336583 28.0633747 14.7578264 27.9608275 14.7578264 27.6634408L14.7578264 26.1970165C14.7578264 25.9098845 14.8336583 25.8175921 14.9961554 25.8175921 15.1586524 25.8175921 15.2344844 25.9201392 15.2344844 26.1970165L15.2344844 27.6634408z"/>
    <polygon points="16.417 25.868 16.417 26.54 16.824 26.271 16.824 28.71 17.68 28.71 17.68 25.484 16.941 25.484"/>
    <path d="M19.7030826 26.7917665C19.9932793 26.6994754 20.1383777 26.5148932 20.1383777 26.1970016L20.1383777 26.0021648C20.1383777 25.4279091 19.714244 25.1612903 19.1003663 25.1612903 18.4864886 25.1612903 18.0735163 25.4176545 18.0735163 25.9919103L18.0735163 26.1970016C18.0735163 26.5046386 18.2074533 26.6994754 18.5088114 26.7917665 18.1293234 26.9148213 17.9953864 27.1199127 17.9953864 27.4583134L17.9953864 27.8684961C17.9953864 28.4735156 18.4195201 28.7196252 19.1003663 28.7093706 19.7700511 28.7093706 20.2053462 28.4427518 20.2053462 27.8479869L20.2053462 27.4480588C20.2053462 27.1096581 20.0825706 26.9045668 19.7030826 26.7917665zM18.8994609 26.0021648C18.8994609 25.8175826 18.9887522 25.7458007 19.1115277 25.7458007 19.2343033 25.7458007 19.3124332 25.8073281 19.3124332 25.9919103L19.3124332 26.2687836C19.3124332 26.4738749 19.2343033 26.5456569 19.1115277 26.5456569 18.9775908 26.5456569 18.8994609 26.4738749 18.8994609 26.2687836L18.8994609 26.0021648zM19.3235946 27.8582415C19.3235946 28.0530783 19.2454647 28.1248603 19.1003663 28.1146057 18.9664294 28.1146057 18.8882995 28.0530783 18.8882995 27.8479869L18.8882995 27.3455132C18.8882995 27.1301672 18.9775908 27.0583853 19.1115277 27.0583853 19.2454647 27.0583853 19.3235946 27.1404218 19.3235946 27.3455132L19.3235946 27.8582415zM5.18017114 12.5865103L4.73562801 12.6854839 4.73562801 12.9032258 10.1026731 12.9032258 10.1026731 12.6953812 9.65812997 12.5964076C9.02926408 12.4677419 8.96420899 12.4380499 8.96420899 11.6066716L8.96420899 4.28262463 8.70398862 4.19354839C7.93417003 5.01502933 6.4270604 5.56928152 4.78984059 5.85630499L4.78984059 6.06414956 5.87409212 6.32148094 5.87409212 11.5967742C5.87409212 12.4281525 5.80903703 12.4479472 5.18017114 12.5865103z"/>
    <path d="M13.8269636 13.2258065C15.9780624 13.2258065 18.311095 11.8609319 18.311095 8.67956989 18.311095 5.69892473 16.1599962 4.19354839 13.9232815 4.19354839 12.1574541 4.19354839 9.47125603 5.39784946 9.47125603 8.8 9.47125603 11.7706093 11.4083152 13.2157706 13.8269636 13.2258065zM13.9018775 4.56487455C14.8115461 4.56487455 15.1861156 5.11684588 15.1861156 8.84014337 15.1861156 12.0215054 14.93997 12.8544803 13.9018775 12.8544803 12.906593 12.8544803 12.5962354 12.1419355 12.5962354 8.63942652 12.5962354 5.06666667 13.0992287 4.56487455 13.9018775 4.56487455zM22.9825111 13.2258065C25.1336099 13.2258065 27.4666425 11.8609319 27.4666425 8.67956989 27.4666425 5.69892473 25.3155436 4.19354839 23.0788289 4.19354839 21.3130016 4.19354839 18.6268035 5.39784946 18.6268035 8.8 18.6268035 11.7706093 20.5531607 13.2157706 22.9825111 13.2258065zM23.057425 4.56487455C23.9670936 4.56487455 24.3416631 5.11684588 24.3416631 8.84014337 24.3416631 12.0215054 24.0848155 12.8544803 23.057425 12.8544803 22.0621404 12.8544803 21.7517829 12.1419355 21.7517829 8.63942652 21.7517829 5.06666667 22.2547762 4.56487455 23.057425 4.56487455z"/>
    <polygon points="17.364 1.935 17.995 1.935 17.673 1.29"/>
    <path d="M15.4256833,2.90322581 C15.6973569,2.90322581 15.7849936,2.4771759 15.7849936,1.7635423 C15.7937573,1.14576993 15.6710659,0.64516129 15.276701,0.64516129 L15.1540096,0.64516129 L15.1540096,2.49847839 C15.1540096,2.75410834 15.1890643,2.90322581 15.4256833,2.90322581 Z"/>
    <path d="M0,0 L0,3.44 L0,30 L31.886562,30 L31.886562,3.44 L31.886562,0 L0,0 Z M29.8777086,1.22 C29.8777086,0.85 30.1115433,0.5 30.6855015,0.5 C30.8980785,0.5 31.1106556,0.57 31.1956864,0.57 C31.2594596,0.57 31.2913461,0.56 31.3232327,0.53 L31.376377,0.53 L31.376377,1.19 L31.301975,1.19 C31.227573,0.93 31.0681402,0.63 30.6748726,0.63 C30.4197801,0.63 30.3028627,0.76 30.3028627,0.91 C30.3028627,1.4 31.5358098,1.37 31.5358098,2.2 C31.5358098,2.63 31.1744287,2.94 30.6642437,2.94 C30.4197801,2.94 30.1965742,2.86 30.1009145,2.86 C30.0477702,2.86 30.0052548,2.88 29.9521105,2.91 L29.8883374,2.91 L29.9308528,2.23 L30.0052548,2.23 C30.0371414,2.59 30.2390896,2.81 30.6217283,2.81 C30.9405939,2.81 31.0362536,2.62 31.0362536,2.46 C31.0362536,1.91 29.8777086,1.96 29.8777086,1.22 Z M28.0389168,0.65 C28.0070303,0.62 27.9751437,0.6 27.8688551,0.6 L27.8688551,0.53 L29.6757603,0.53 L29.6863892,1.19 L29.6119872,1.19 C29.5375852,0.87 29.3887813,0.66 29.0380291,0.66 L28.7616789,0.66 L28.7616789,1.62 L28.8892251,1.62 C29.186833,1.62 29.3250081,1.55 29.3675236,1.29 L29.4419255,1.29 L29.4419255,2.14 L29.3675236,2.14 C29.3250081,1.88 29.186833,1.78 28.8892251,1.78 L28.7616789,1.78 C28.7616789,1.78 28.7616789,2.29 28.7616789,2.38 C28.7616789,2.66 28.8148232,2.79 29.1124311,2.79 C29.4312967,2.79 29.5907295,2.59 29.6757603,2.24 L29.7501623,2.24 L29.7076469,2.91 L27.8688551,2.91 L27.8688551,2.84 C27.9751437,2.84 28.0176591,2.81 28.0389168,2.79 C28.1026899,2.73 28.1026899,2.68 28.1026899,1.72 C28.1026899,0.76 28.0920611,0.71 28.0389168,0.65 Z M27.5606184,2.79 C27.5925049,2.82 27.6243915,2.84 27.73068,2.84 L27.73068,2.91 L26.5933927,2.91 L26.5933927,2.84 C26.6996812,2.84 26.7421966,2.81 26.7634543,2.79 C26.8272275,2.73 26.8272275,2.68 26.8272275,1.72 L26.8272275,1.08 L26.1682385,2.92 L25.9556614,2.92 L25.2754148,1.08 L25.2754148,2.49 C25.2754148,2.74 25.3073013,2.81 25.5411361,2.85 L25.5411361,2.92 L24.8715183,2.92 L24.8715183,2.85 C25.0840954,2.82 25.115982,2.75 25.115982,2.49 L25.115982,1.72 C25.115982,0.76 25.1053531,0.71 25.0522088,0.65 C25.0203223,0.62 24.9778069,0.6 24.8715183,0.6 L24.8715183,0.53 L25.8174863,0.53 L26.3383002,1.98 L26.8697429,0.53 L27.73068,0.53 L27.73068,0.6 C27.6243915,0.6 27.5818761,0.63 27.5606184,0.65 C27.4968453,0.71 27.4968453,0.76 27.4968453,1.72 C27.4968453,2.68 27.5074741,2.74 27.5606184,2.79 Z M24.5739104,2.79 C24.605797,2.82 24.6376835,2.84 24.7439721,2.84 L24.7439721,2.91 L23.6066847,2.91 L23.6066847,2.84 C23.7129732,2.84 23.7554887,2.81 23.7767464,2.79 C23.8405195,2.73 23.8405195,2.68 23.8405195,1.72 C23.8405195,0.76 23.8298906,0.71 23.7767464,0.65 C23.7448598,0.62 23.7129732,0.6 23.6066847,0.6 L23.6066847,0.53 L24.7439721,0.53 L24.7439721,0.6 C24.6376835,0.6 24.5951681,0.63 24.5739104,0.65 C24.5101373,0.71 24.5101373,0.76 24.5101373,1.72 C24.5101373,2.68 24.5207661,2.74 24.5739104,2.79 Z M22.8839226,2.78 C22.926438,2.82 22.9902112,2.84 23.1071286,2.84 L23.1071286,2.91 L21.8954392,2.91 L21.8954392,2.84 C22.0123566,2.84 22.0761297,2.82 22.1186451,2.78 C22.1717894,2.73 22.1824183,2.69 22.1824183,1.73 L22.1824183,0.64 L22.1717894,0.64 C21.9166969,0.64 21.6722333,0.78 21.5872024,1.19 L21.5128005,1.19 L21.5128005,0.53 L23.511025,0.53 L23.511025,1.19 L23.5003962,1.19 L23.4259942,1.19 C23.3409634,0.79 23.0858709,0.64 22.8307784,0.64 L22.8201495,0.64 L22.8201495,1.73 C22.8201495,2.69 22.8307784,2.73 22.8839226,2.78 Z M20.2267091,2.79 C20.2585957,2.82 20.3011111,2.84 20.4499151,2.84 L20.4499151,2.91 L19.2275969,2.91 L19.2275969,2.84 C19.3764008,2.84 19.4189162,2.81 19.4508028,2.79 C19.5039471,2.74 19.5145759,2.68 19.5145759,1.85 L19.0575352,1.02 C18.8449581,0.62 18.8237004,0.61 18.632381,0.59 L18.632381,0.53 L19.8334415,0.53 L19.8334415,0.6 C19.6846376,0.61 19.6208645,0.64 19.6208645,0.73 C19.6208645,0.77 19.6421222,0.81 19.7377818,1.01 L20.0779052,1.65 L20.3648842,1.09 C20.4499151,0.91 20.5030593,0.8 20.5030593,0.74 C20.5030593,0.67 20.4605439,0.62 20.31174,0.61 L20.31174,0.53 L21.0026155,0.53 L21.0026155,0.6 C20.8006672,0.63 20.7687807,0.66 20.598719,0.99 L20.162936,1.85 C20.162936,2.69 20.1735649,2.74 20.2267091,2.79 Z M17.8989901,2.14 L17.25063,2.14 C17.1549703,2.43 17.1018261,2.6 17.1018261,2.64 C17.1018261,2.77 17.1868569,2.84 17.3356608,2.84 L17.3356608,2.91 L16.5172391,2.91 L16.5172391,2.84 C16.7723316,2.79 16.814847,2.75 16.9530221,2.38 L17.6013822,0.53 L18.0371652,0.53 L18.7599273,2.51 C18.8449581,2.74 18.8981024,2.83 19.068164,2.85 L19.068164,2.91 L17.760815,2.91 L17.760815,2.84 C17.9627632,2.82 18.0690518,2.78 18.0690518,2.67 C18.0690518,2.63 18.0371652,2.51 17.8989901,2.14 Z M14.5509011,0.65 C14.5190145,0.62 14.487128,0.6 14.3808394,0.6 L14.3808394,0.53 L15.507498,0.53 C16.2940332,0.53 16.7298162,0.97 16.7298162,1.72 C16.7191873,2.39 16.4640948,2.91 15.5606422,2.91 L14.3808394,2.91 L14.3808394,2.84 C14.487128,2.84 14.5296434,2.81 14.5509011,2.79 C14.6146742,2.73 14.6146742,2.68 14.6146742,1.72 C14.6146742,0.76 14.6040454,0.71 14.5509011,0.65 Z M12.5845631,2.86 L12.5845631,2.93 L11.861801,2.93 L11.861801,2.86 C12.0956358,2.83 12.1275224,2.76 12.1275224,2.5 L12.1275224,1.73 C12.1275224,0.77 12.1168935,0.72 12.0637493,0.66 C12.0318627,0.63 11.9999761,0.61 11.8936876,0.61 L11.8936876,0.53 L12.7227382,0.53 L13.7856236,1.94 L13.7856236,0.95 C13.7856236,0.7 13.7537371,0.63 13.5199023,0.59 L13.5199023,0.53 L14.2426643,0.53 L14.2426643,0.6 C14.0088296,0.63 13.976943,0.7 13.976943,0.96 L13.976943,2.92 L13.6261908,2.92 L12.3188418,1.23 L12.3188418,2.5 C12.3188418,2.75 12.3507283,2.83 12.5845631,2.86 Z M9.62974171,0.65 C9.59785515,0.62 9.55533973,0.6 9.44905119,0.6 L9.44905119,0.53 L10.5863386,0.53 L10.5863386,0.6 C10.48005,0.6 10.4375346,0.62 10.4162769,0.65 C10.3737615,0.69 10.3525038,0.86 10.3525038,1.37 L10.3525038,2.3 C10.3525038,2.61 10.5225654,2.75 10.8095445,2.75 C11.1602967,2.75 11.3516161,2.5 11.3516161,1.98 L11.3516161,0.95 C11.3516161,0.7 11.3197295,0.63 11.0858947,0.59 L11.0858947,0.53 L11.8086568,0.53 C11.8086568,0.53 11.8086568,0.6 11.8086568,0.6 C11.574822,0.63 11.5429354,0.7 11.5429354,0.96 L11.5429354,1.97 C11.5429354,2.55 11.3197295,2.95 10.628854,2.95 C9.96986504,2.95 9.69351483,2.6 9.69351483,2.21 L9.69351483,1.35 C9.69351483,0.87 9.67225713,0.69 9.62974171,0.65 Z M7.75906341,1.23 C7.75906341,0.85 7.9928982,0.5 8.56685631,0.5 C8.77943339,0.5 8.99201047,0.57 9.0770413,0.57 C9.14081443,0.57 9.17270099,0.56 9.20458755,0.53 L9.25773182,0.53 L9.25773182,1.19 L9.18332984,1.19 C9.10892787,0.94 8.94949506,0.63 8.55622746,0.63 C8.30113496,0.63 8.18421757,0.77 8.18421757,0.91 C8.18421757,1.4 9.41716463,1.37 9.41716463,2.2 C9.41716463,2.63 9.0557836,2.94 8.5455986,2.94 C8.30113496,2.94 8.07792903,2.86 7.98226934,2.86 C7.92912507,2.86 7.88660966,2.88 7.83346539,2.91 L7.76969226,2.91 L7.76969226,2.24 L7.84409424,2.24 C7.89723851,2.61 8.12044444,2.82 8.50308319,2.82 C8.82194881,2.82 8.91760849,2.63 8.91760849,2.47 C8.91760849,1.92 7.75906341,1.97 7.75906341,1.23 Z M5.28254043,0.65 C5.26128272,0.62 5.21876731,0.6 5.11247877,0.6 L5.11247877,0.53 L6.91938394,0.53 L6.9300128,1.19 L6.85561082,1.19 C6.78120884,0.87 6.63240489,0.66 6.28165271,0.66 L6.0053025,0.66 L6.0053025,1.62 L6.13284875,1.62 C6.43045666,1.62 6.56863176,1.55 6.61114718,1.29 L6.69617801,1.29 L6.69617801,2.14 L6.62177603,2.14 C6.57926062,1.88 6.44108551,1.78 6.1434776,1.78 L6.01593136,1.78 C6.01593136,1.78 6.01593136,2.29 6.01593136,2.38 C6.01593136,2.66 6.06907563,2.79 6.36668354,2.79 C6.68554916,2.79 6.84498197,2.59 6.9300128,2.24 L7.00441478,2.24 L6.96189936,2.91 L5.11247877,2.91 L5.11247877,2.84 C5.21876731,2.84 5.26128272,2.81 5.28254043,2.79 C5.34631355,2.73 5.34631355,2.68 5.34631355,1.72 C5.34631355,0.76 5.3356847,0.71 5.28254043,0.65 Z M4.81487086,2.79 C4.84675742,2.82 4.87864398,2.84 4.98493252,2.84 L4.98493252,2.91 L3.84764514,2.91 L3.84764514,2.84 C3.95393368,2.84 3.9964491,2.81 4.01770681,2.79 C4.08147993,2.73 4.08147993,2.68 4.08147993,1.77 L3.37997557,1.77 C3.37997557,2.68 3.39060442,2.73 3.44374869,2.79 C3.47563525,2.82 3.50752182,2.84 3.61381035,2.84 L3.61381035,2.91 L2.49778069,2.91 L2.49778069,2.84 C2.60406923,2.84 2.64658464,2.81 2.66784235,2.79 C2.73161547,2.73 2.73161547,2.68 2.73161547,1.72 C2.73161547,0.76 2.72098662,0.71 2.66784235,0.65 C2.63595579,0.62 2.60406923,0.6 2.49778069,0.6 L2.49778069,0.53 L3.63506806,0.53 L3.63506806,0.6 C3.52877952,0.6 3.48626411,0.63 3.4650064,0.65 C3.41186213,0.7 3.40123328,0.75 3.40123328,1.62 L4.10273764,1.62 C4.10273764,0.75 4.09210878,0.7 4.03896451,0.65 C3.98582024,0.62 3.95393368,0.6 3.84764514,0.6 L3.84764514,0.53 L4.98493252,0.53 L4.98493252,0.6 C4.87864398,0.6 4.83612856,0.63 4.81487086,0.65 C4.75109773,0.71 4.75109773,0.76 4.75109773,1.72 C4.75109773,2.68 4.76172659,2.73 4.81487086,2.79 Z M1.77501862,2.78 C1.81753403,2.82 1.88130716,2.84 1.99822455,2.84 L1.99822455,2.91 L0.786535195,2.91 L0.786535195,2.84 C0.903452589,2.84 0.967225713,2.82 1.00974113,2.78 C1.0628854,2.73 1.07351425,2.69 1.07351425,1.73 L1.07351425,0.64 L1.0628854,0.64 C0.807792903,0.64 0.563329261,0.78 0.467669575,1.19 L0.403896451,1.19 L0.403896451,0.53 L2.402121,0.53 L2.402121,1.19 L2.39149215,1.19 L2.31709017,1.19 C2.23205934,0.79 1.97696684,0.64 1.72187435,0.64 L1.71124549,0.64 L1.71124549,1.73 C1.71124549,2.69 1.72187435,2.73 1.77501862,2.78 Z M31.6739849,29.8 L0.21257708,29.8 L0.21257708,3.44 L31.6739849,3.44 L31.6739849,29.8 Z"/>
  </g>
</svg>
