<svg xmlns="http://www.w3.org/2000/svg" width="62" height="18" viewBox="0 0 62 18">
  <g fill="#FFF" transform="translate(.554 .452)">
    <path d="M43.7058344 6.21835093C43.2657718 6.28611501 42.7537759 6.38576807 42.2925564 6.6408799 41.7763291 6.92389459 41.4293567 7.25474275 41.2008626 7.67727172 40.9977568 8.05595335 40.908898 8.38680151 40.908898 8.7415664 40.908898 8.98471986 40.908898 9.22388721 40.908898 9.46704067 40.908898 10.4635713 40.9131294 11.4919908 40.8538902 12.5044659 40.8496588 12.5961467 40.8496588 12.6918137 40.8496588 12.7795084 41.023145 12.9230088 41.2008626 13.0665092 41.3743488 13.2100096 41.729784 13.5009965 42.0852192 13.7919835 42.4321917 14.0909426 42.5379759 14.1826235 42.5887524 14.1866096 42.6691485 14.071012 42.8257092 13.8398169 42.9822699 13.6086218 43.1388307 13.3734406 43.028815 13.190079 42.9611131 12.9588839 42.9526503 12.735661 42.9357248 12.2613125 42.9399562 11.7829778 42.9441876 11.3205876 42.9441876 11.1451982 42.9441876 10.9618366 42.9441876 10.7784749 42.9441876 10.5951133 42.9441876 10.4077656 42.948419 10.22839 42.9526503 9.82180557 42.9568817 9.40326271 42.9399562 8.99269211 42.914568 8.23931498 43.4646463 7.70118846 44.3151519 7.65335499 44.3532342 7.64936886 44.3870852 7.64936886 44.4251676 7.64936886 45.2375909 7.64936886 45.6861162 8.16756477 45.7580495 8.64988558 45.7792064 8.79338599 45.7792064 8.93290027 45.7792064 9.06842843 45.7792064 9.14017864 45.7792064 9.21192884 45.7834378 9.27969292 45.7876691 9.34347088 45.7919005 9.40724884 45.7961319 9.47501292 45.9738495 9.20794272 46.1473357 8.94485864 46.3250533 8.67778844 46.5281591 8.37484314 46.7270336 8.07189784 46.9428335 7.77692478 46.9682217 7.74104968 47.0951629 7.72909131 47.1332452 7.75699417 47.3448138 7.90049457 47.552151 8.04399498 47.7637195 8.18350926 47.7256372 8.06791171 47.6790921 7.95231417 47.6240843 7.82874437 47.2517236 7.02753377 46.5408532 6.52528235 45.4491594 6.29408725 45.0471791 6.21037868 44.6790498 6.16653134 44.3236146 6.16653134L44.3236146 6.16653134 44.3236146 6.00708644 44.3236146 6.00708644 44.3236146 6.16653134C44.1162774 6.17450358 43.9089403 6.19044807 43.7058344 6.21835093zM51.9146948 6.21835093C51.4746322 6.28611501 50.9626363 6.38576807 50.5014168 6.6408799 49.9851895 6.92389459 49.638217 7.25474275 49.409723 7.67727172 49.2066172 8.05595335 49.1177584 8.38680151 49.1177584 8.7415664 49.1177584 8.86513619 49.1177584 8.98870599 49.1177584 9.10828966 49.6932249 9.50291577 50.2686914 9.89355577 50.8441579 10.2881819 50.8822402 10.3160847 50.9160912 10.3519598 50.9837931 10.4077656 51.0430323 10.3160847 51.1022715 10.2204178 51.1572793 10.128737 51.1615107 9.75404149 51.1615107 9.36738761 51.1488166 8.99269211 51.1234284 8.23931498 51.6735066 7.70118846 52.5240123 7.65335499 52.5620946 7.64936886 52.5959456 7.64936886 52.6340279 7.64936886 52.6594162 7.64936886 52.6848044 7.64936886 52.7101926 7.64936886 52.9979259 7.19096479 53.2814277 6.73654684 53.569161 6.27814276 53.2010317 6.20639256 52.862522 6.17051746 52.532475 6.17051746L52.532475 6.17051746 52.532475 6.01107256 52.532475 6.01107256 52.532475 6.17051746C52.3251378 6.17450358 52.1178006 6.19044807 51.9146948 6.21835093zM51.4026989 13.0904259C51.4323185 13.1701484 51.4661694 13.2458847 51.5084832 13.3136488 51.7200517 13.6444969 52.1178006 13.8318447 52.5620946 13.8318447 52.6932671 13.8318447 52.828671 13.8159002 52.9598435 13.7800251 53.4464512 13.6564553 53.7722668 13.3295933 53.8061178 12.7834945 53.8568942 11.9344504 53.865357 11.0814202 53.8738197 10.22839 53.8780511 10.0569868 53.865357 9.88558352 53.8526629 9.71019414 53.1164043 10.8900864 52.3801457 12.0699786 51.6396557 13.2498708 51.5592596 13.2020374 51.4788636 13.1462316 51.4026989 13.0904259z"/>
    <path d="M52.6128711 7.81279988C52.5874828 7.81279988 52.5620946 7.81279988 52.5367064 7.816786 51.8216046 7.85664723 51.2969146 8.28714845 51.3223028 8.99269211 51.3307656 9.28367904 51.3349969 9.57067986 51.3307656 9.86166679 51.7581341 9.17605374 52.1855026 8.49442681 52.6128711 7.81279988zM17.3951675 11.0176423C17.2259127 11.6673802 17.0566578 12.3171182 16.887403 12.9828006 17.2724578 12.9828006 17.6109675 12.9828006 17.9790968 12.9828006 17.8013792 12.3131321 17.6278929 11.6633941 17.4544067 11.0136562 17.4332499 11.0176423 17.4163244 11.0176423 17.3951675 11.0176423zM11.5135614 10.6070717C11.2342909 10.5951133 10.950789 10.6030856 10.6503616 10.6030856 10.6461303 10.6668635 10.6418989 10.7027386 10.6418989 10.7425998 10.6418989 11.1133092 10.6376675 11.4840186 10.6503616 11.854728 10.6503616 11.9025615 10.7392204 11.9822839 10.7942283 11.9902561 10.9380949 12.0101868 11.0904242 11.9942423 11.2342909 11.9982284 11.7335927 12.0101868 11.9155417 11.8387835 12.0255573 11.4282129 12.1228789 11.0614896 11.8605338 10.6230162 11.5135614 10.6070717zM54.013455 9.60655496C54.0261491 9.8098472 54.0430746 10.0250978 54.0388432 10.2363623 54.0388432 10.3320292 54.0346118 10.4276962 54.0346118 10.5233631 54.0261491 11.268768 54.013455 12.0380896 53.9711413 12.7954529 53.9372903 13.3814129 53.5903178 13.7879973 53.0021572 13.93947 52.8540592 13.9753451 52.7059612 13.9952757 52.5578632 13.9952757 52.0458673 13.9952757 51.597342 13.7720529 51.3603852 13.3973573 51.2757577 13.2658153 51.2165185 13.1063704 51.1868989 12.9429394 50.7849187 12.667897 50.3914011 12.3928545 49.9936522 12.1217982 49.6974562 11.9185059 49.4012602 11.7191998 49.1050642 11.5159076 49.0966015 11.8467557 49.0839074 12.1776039 49.0669819 12.5084521 49.0288996 13.1542039 49.1854603 13.7481361 49.52397 14.2264708 49.8624797 14.7087916 50.378707 15.0595704 51.0176441 15.242932 51.5084832 15.3864324 51.9950909 15.4541965 52.5028554 15.4541965 52.6340279 15.4541965 52.7736632 15.4502104 52.9090671 15.438252 53.7468786 15.3784602 54.3942784 15.1831402 54.9443567 14.820403 55.6721525 14.3460545 56.0487446 13.6883443 56.0699014 12.8672031 56.0868269 12.1217982 56.0825956 11.3604488 56.0783642 10.6230162 56.0783642 10.3041264 56.0741328 9.97327822 56.0741328 9.6504023L56.0741328 9.49095741 56.099521 9.49095741C56.099521 9.46704067 56.099521 9.44312394 56.099521 9.42319333 56.099521 9.25179006 56.099521 9.08437292 56.099521 8.91296966 56.099521 8.56617701 56.0148936 8.21141212 55.8414074 7.83273049 55.7313917 7.59754927 55.5917565 7.39027091 55.426733 7.20690928 54.9570508 7.96028641 54.4831372 8.71366354 54.013455 9.46704067 54.0092236 9.51487414 54.013455 9.56270761 54.013455 9.60655496zM47.5056059 10.5911272C46.959759 11.4042962 46.4054493 12.2094929 45.8553711 13.0226618 45.3095242 13.8318447 44.7679086 14.6410275 44.2262931 15.4502104 44.24745 15.4502104 44.2686068 15.4502104 44.2855323 15.4502104 44.4167048 15.4502104 44.5563401 15.4462243 44.691744 15.4342659 45.5295555 15.3744741 46.1769553 15.1791541 46.7270336 14.8164169 47.4548294 14.3420684 47.8314215 13.6843582 47.8525783 12.8632169 47.8695038 12.1297704 47.8652724 11.3843655 47.8610411 10.6628774 47.8102646 10.6270023 47.7594882 10.5951133 47.7087117 10.5592382 47.6113902 10.4954602 47.5775392 10.4914741 47.5056059 10.5911272zM45.2714418 10.2682513C45.398383 10.0809035 45.5210927 9.89754189 45.6438025 9.71019414 45.6353398 9.57067986 45.6226456 9.43116557 45.6184143 9.29165129 45.6099515 9.08835905 45.6226456 8.87709456 45.593026 8.67778844 45.5253241 8.2433011 45.1148811 7.81279988 44.4251676 7.81279988 44.3913166 7.81279988 44.3574656 7.81279988 44.327846 7.816786 43.6127443 7.85664723 43.0880542 8.28714845 43.1134424 8.99269211 43.1345993 9.59061047 43.1176738 10.1885288 43.1176738 10.7864472 43.1176738 11.4361851 43.1049797 12.0899092 43.1261366 12.7396472 43.1303679 12.9030782 43.1726816 13.0744814 43.2488463 13.2259541 43.5915874 12.7157304 43.9385599 12.2015206 44.2855323 11.691297 44.6071165 11.2129623 44.9456262 10.7425998 45.2714418 10.2682513zM39.7833532 14.5094855C39.609867 14.7685835 39.4575376 15.0236953 39.27982 15.2628626 39.49562 15.2668487 39.7114199 15.2668487 39.9229885 15.2708349L39.9272198 15.2708349C39.9314512 15.2708349 39.9356826 15.2708349 39.9356826 15.2708349 39.9356826 15.2668487 39.9356826 15.2588765 39.9356826 15.2509043 39.9314512 15.0436259 39.9314512 14.8403337 39.9314512 14.6330553 39.8849061 14.5892079 39.8341297 14.5493467 39.7833532 14.5094855z"/>
    <path d="M0,0 L0,17.4193548 L60.9317471,17.4193548 L60.9317471,0 L0,0 Z M15.7407013,2.18439507 C16.5869756,1.9771167 17.4078616,2.00501956 18.186434,2.4036318 C18.7915201,2.71056322 19.1173357,3.20882852 19.1511866,3.86255259 C19.1596494,4.03794198 19.1765749,4.21731749 19.1935003,4.39270687 C19.2019631,4.50033218 19.155418,4.54816565 19.0369396,4.54816565 C18.4953241,4.54417952 17.9537085,4.54816565 17.3740107,4.54816565 C17.3740107,4.36879014 17.3909362,4.20934524 17.3697793,4.05388647 C17.3232342,3.68317709 16.8620147,3.46394036 16.4346462,3.57156566 C16.1215248,3.65128811 15.964964,3.86653872 15.9691954,4.15353953 C15.9861209,4.92286115 15.9734268,5.69616889 15.9734268,6.46549051 C15.9734268,6.82424153 16.2146149,7.05942275 16.591207,7.05942275 C17.0905088,7.06340887 17.3655479,6.85214439 17.3697793,6.46549051 C17.3740107,6.06289215 17.3740107,6.06289215 17.8140733,6.06289215 C18.2033594,6.06289215 18.5884142,6.0708644 18.9777004,6.05890603 C19.1511866,6.05491991 19.2061945,6.11072562 19.189269,6.2661844 C19.1469553,6.68472725 19.1596494,7.10725622 18.9396181,7.50188234 C18.6941985,7.9403558 18.3176065,8.22337049 17.8394615,8.36687089 C16.9043284,8.64589946 15.9734268,8.64191334 15.0806074,8.21141212 C14.3570429,7.86461947 14.0185332,7.27467336 13.9889136,6.5332546 C13.959294,5.79582195 14.0016077,5.05838931 13.9804509,4.32095667 C13.9465999,3.25666199 14.6786271,2.4395069 15.7407013,2.18439507 Z M8.89011116,2.15250609 C10.3118519,2.15649221 11.7378241,2.15649221 13.1595648,2.15250609 C13.3118942,2.15250609 13.3542079,2.2083118 13.3499765,2.33985384 C13.3415138,2.69860486 13.3415138,3.05735587 13.3499765,3.41610689 C13.3542079,3.58352403 13.2992001,3.63534362 13.1214825,3.6313575 C12.3048278,3.62338525 11.4881732,3.62737137 10.654593,3.62737137 C10.654593,3.93031668 10.654593,4.22528973 10.654593,4.54816565 C11.3570006,4.54816565 12.0424828,4.54816565 12.7448904,4.54816565 C12.7448904,5.0384587 12.7448904,5.51280726 12.7448904,6.01107256 C12.0551769,6.01107256 11.361232,6.01107256 10.654593,6.01107256 C10.654593,6.34192072 10.654593,6.64885214 10.654593,6.97571418 C10.9677145,6.97571418 11.2766046,6.97571418 11.5812633,6.97571418 C12.0974906,6.97571418 12.6094866,6.98368643 13.1257139,6.97172806 C13.3076628,6.96774194 13.3584393,7.02753377 13.3499765,7.19096479 C13.3372824,7.5497158 13.3415138,7.90846682 13.3499765,8.26721783 C13.3542079,8.402746 13.3076628,8.45456559 13.1595648,8.45456559 C11.7378241,8.45057946 10.3118519,8.45057946 8.89011116,8.45456559 C8.74201316,8.45456559 8.69546808,8.41071824 8.69546808,8.27120396 C8.69969945,6.29408725 8.69969945,4.31298442 8.69546808,2.33586772 C8.6912367,2.19236731 8.74624453,2.15250609 8.89011116,2.15250609 Z M2.80963056,2.32789548 C2.80539919,2.18040895 2.87310113,2.14851997 3.01273638,2.14851997 C3.75322637,2.15250609 4.49371635,2.15250609 5.23420633,2.15250609 C6.10163745,2.15250609 6.96906857,2.15649221 7.8364997,2.14851997 C8.02268004,2.14851997 8.0861506,2.18040895 8.06922512,2.38370119 C8.03960552,2.79028567 8.06076238,3.19687016 8.06076238,3.62737137 C7.5699233,3.62737137 7.10447246,3.63534362 6.64325298,3.62338525 C6.45284127,3.61939913 6.40629619,3.68317709 6.40629619,3.85059423 C6.41052756,5.29755665 6.41052756,6.74451908 6.41052756,8.19546763 C6.41052756,8.26721783 6.4189903,8.33498191 6.42745304,8.42666273 C5.78005323,8.42666273 5.13265342,8.42666273 4.46832812,8.42666273 C4.46832812,6.8361999 4.46832812,5.24573706 4.46832812,3.62737137 C4.16790076,3.62737137 3.88439888,3.62737137 3.59666563,3.62737137 C3.3935598,3.62737137 3.18622261,3.62338525 2.98311679,3.62737137 C2.85194427,3.6313575 2.80963056,3.57953791 2.80963056,3.46394036 C2.8180933,3.08525873 2.8180933,2.7065771 2.80963056,2.32789548 Z M8.07345649,9.40326271 C8.02268004,9.78593046 8.06076238,10.1765705 8.06076238,10.6030856 C7.59531153,10.6030856 7.12986069,10.6150439 6.66864121,10.5990994 C6.45284127,10.5911272 6.40629619,10.6748358 6.41052756,10.8542113 C6.41475893,12.2892153 6.41475893,13.7242194 6.41475893,15.1592234 C6.41475893,15.2389459 6.41475893,15.3186683 6.41475893,15.4143353 C5.77159049,15.4143353 5.13265342,15.4143353 4.47679086,15.4143353 C4.47679086,13.8238724 4.47679086,12.2254374 4.47679086,10.6110578 C3.91824985,10.6110578 3.37663432,10.6110578 2.83078742,10.6110578 C2.83078742,10.128737 2.83078742,9.66634679 2.83078742,9.18402598 C2.89848936,9.18003986 2.9661913,9.17605374 3.03389324,9.17605374 C4.64181435,9.17605374 6.24973545,9.17605374 7.85765655,9.17206762 C8.03537415,9.16808149 8.10730746,9.17206762 8.07345649,9.40326271 Z M13.9465999,15.4262936 C13.3542079,15.4262936 12.7618159,15.4223075 12.1694239,15.4302798 C12.0424828,15.4302798 11.9747809,15.406363 11.9282358,15.274821 C11.6828162,14.6091386 11.4204712,13.9474422 11.1665889,13.2817598 C10.9973341,13.2817598 10.8280792,13.2817598 10.6461303,13.2817598 C10.6461303,13.9912896 10.6461303,14.6928471 10.6461303,15.4103492 C9.99449907,15.4103492 9.355562,15.4103492 8.6912367,15.4103492 C8.6912367,15.3465712 8.6912367,15.274821 8.6912367,15.2070569 C8.6912367,13.2737876 8.69546808,11.3445043 8.68700533,9.41123496 C8.68700533,9.21591496 8.74624453,9.16409537 8.94935036,9.16808149 C9.91410302,9.17605374 10.8830871,9.14815088 11.8478397,9.18003986 C12.6814199,9.20794272 13.4049844,9.48697129 13.7561882,10.2722374 C13.9212117,10.6389607 13.9719881,11.0296006 13.9127489,11.4401713 C13.8577411,11.8188529 13.7731137,12.1736178 13.515,12.4685908 C13.3499765,12.6599247 13.1426393,12.8153835 12.9479963,12.9987451 C13.333051,13.7959696 13.7181058,14.5971802 14.1158547,15.4223075 C14.0523842,15.4183214 13.9973763,15.4262936 13.9465999,15.4262936 Z M18.6518848,15.4183214 C18.5587946,15.0874732 18.4657045,14.7446667 18.3683829,14.3899018 C17.7717596,14.3899018 17.1793676,14.3859157 16.5869756,14.3938879 C16.5361991,14.3938879 16.4558031,14.4536798 16.443109,14.4975271 C16.3584815,14.8004724 16.2907796,15.1034177 16.2188463,15.4143353 C15.6137602,15.4143353 15.0171368,15.4143353 14.4120507,15.4143353 C14.585537,14.8443198 14.7590232,14.2782904 14.9325094,13.712261 C15.3302583,12.4167712 15.7280072,11.1212815 16.1257561,9.82977781 C16.1723012,9.67431904 16.2400032,9.51886026 16.2569286,9.35941537 C16.2780855,9.19199823 16.3542502,9.16010925 16.5150423,9.16409537 C17.2682264,9.17206762 18.0214105,9.16808149 18.7830573,9.16808149 C19.4008375,11.2488374 20.0186177,13.3256071 20.6406293,15.4183214 C19.9720727,15.4183214 19.3246728,15.4183214 18.6518848,15.4183214 Z M20.1455589,8.45456559 C19.9974609,8.45456559 19.9509158,8.41071824 19.9509158,8.27120396 C19.9551472,6.29010113 19.9551472,4.31298442 19.9509158,2.3318816 C19.9509158,2.18838119 20.0059236,2.14851997 20.1497903,2.15250609 C20.6575548,2.15649221 21.1653194,2.16047833 21.6730839,2.15250609 C21.8465702,2.14851997 21.9058094,2.19635344 21.901578,2.3677567 C21.8931152,3.05735587 21.8973466,3.74695505 21.8973466,4.45249871 C22.3585661,4.45249871 22.8113228,4.45249871 23.2767737,4.45249871 C23.2767737,3.71506607 23.2767737,2.97763342 23.2767737,2.2083118 C23.3190874,2.19635344 23.3867893,2.16047833 23.4544913,2.16047833 C24.0257264,2.15649221 24.5969615,2.15649221 25.1978162,2.15649221 C25.1978162,4.25319259 25.1978162,6.34192072 25.1978162,8.44659334 C24.5504164,8.44659334 23.9326362,8.44659334 23.2979305,8.44659334 C23.2979305,8.10777294 23.2979305,7.77692478 23.2979305,7.44607662 C23.2979305,7.05543663 23.2936992,6.66081051 23.2979305,6.27017052 C23.2979305,6.15058685 23.2683109,6.08282277 23.1244443,6.08282277 C22.7182327,6.08680889 22.312021,6.08282277 21.901578,6.08282277 C21.901578,6.8003248 21.8973466,7.50188234 21.9058094,8.207426 C21.9100407,8.39078763 21.8634956,8.46652395 21.6519271,8.45855171 C21.1441625,8.44260722 20.6448607,8.44659334 20.1455589,8.45456559 Z M24.3092283,11.1172953 C24.3092283,10.7545582 23.8987853,10.4516129 23.5264246,10.5353215 C23.052511,10.6389607 22.9128757,10.8063778 22.9128757,11.268768 C22.9128757,11.9942423 22.9128757,12.7157304 22.9128757,13.4412047 C22.9128757,13.7879973 23.1117502,14.003248 23.5137305,14.0670259 C23.75915,14.1068871 24.2076754,13.9673729 24.2753773,13.680372 C24.3092283,13.5408578 24.3092283,13.3933712 24.3049969,13.2498708 C24.3049969,13.1223149 24.3430792,13.0704953 24.4869459,13.0704953 C25.02433,13.0744814 25.5574828,13.0744814 26.0906356,13.0744814 C26.242965,14.071012 25.946769,14.9439728 24.8550752,15.3346128 C23.8860911,15.6814055 22.904413,15.6455304 21.9777427,15.1791541 C21.343037,14.8602643 21.0002959,14.3340961 20.9664449,13.6564553 C20.9283626,12.8751753 20.9198998,12.0938953 20.9241312,11.3126153 C20.9241312,10.8661696 21.0214527,10.4316823 21.3049546,10.0530007 C21.6900094,9.53879088 22.2273936,9.25976231 22.8620993,9.12024803 C23.6279775,8.95283089 24.3726988,9.03255333 25.0708751,9.35144312 C25.6463416,9.6145272 25.9975454,10.0689452 26.0821729,10.6788219 C26.1202552,10.9458921 26.1244866,11.2169484 26.1456434,11.5079353 C25.5109377,11.5079353 24.9227771,11.5079353 24.3049969,11.5079353 C24.3092283,11.3763933 24.3092283,11.2488374 24.3092283,11.1172953 Z M30.2796932,15.4223075 C29.9665717,14.6330553 29.6534503,13.8398169 29.331866,13.0226618 C29.1879994,13.2060235 29.0483642,13.3694545 28.9298858,13.5408578 C28.8748779,13.6245663 28.841027,13.7321916 28.841027,13.8278586 C28.8325642,14.3500406 28.8367956,14.8762088 28.8367956,15.4103492 C28.1851644,15.4103492 27.5504587,15.4103492 26.8903648,15.4103492 C26.8903648,15.3425851 26.8903648,15.2788071 26.8903648,15.211043 C26.8903648,13.2777737 26.8945962,11.3445043 26.8861334,9.41522108 C26.8861334,9.21192884 26.9453726,9.15612313 27.1611725,9.16010925 C27.7112508,9.17206762 28.2613291,9.16409537 28.8325642,9.16409537 C28.8325642,10.0370562 28.8325642,10.9020447 28.8325642,11.7670333 C28.8494897,11.7710194 28.8621838,11.7750055 28.8791093,11.7789917 C29.0525955,11.495977 29.2260818,11.2129623 29.399568,10.9299476 C29.7338463,10.3838488 30.0638933,9.83376393 30.4066344,9.29165129 C30.4404853,9.23584557 30.5293441,9.17206762 30.5928147,9.17206762 C31.1640498,9.16409537 31.7352849,9.16808149 32.3065201,9.17206762 C32.3149828,9.17206762 32.3276769,9.18402598 32.3488338,9.19997047 C31.9510849,9.82180557 31.5575674,10.4436407 31.1598184,11.0654758 C31.0624969,11.2209345 30.9524813,11.3724072 30.8678538,11.5358382 C30.8340029,11.5996162 30.8255401,11.6952831 30.8509283,11.759061 C31.3502302,12.9748284 31.8579947,14.1866096 32.374222,15.4223075 C31.6718144,15.4223075 30.9905636,15.4223075 30.2796932,15.4223075 Z M56.8188542,4.97069462 C56.3830229,5.66826604 55.9471917,6.36583745 55.5113604,7.06340887 C55.7017721,7.26271499 55.8625643,7.49789621 55.9895054,7.76895254 C56.1587602,8.13168967 56.2645445,8.5103713 56.2645445,8.91296966 C56.2645445,9.16010925 56.2645445,9.40326271 56.2645445,9.6504023 C56.2560818,9.6504023 56.247619,9.6504023 56.2391563,9.6504023 C56.2391563,10.7226692 56.2560818,11.7949361 56.2349249,12.8672031 C56.2137681,13.7401639 55.8033251,14.4496937 55.0374468,14.947959 C54.4027411,15.3625157 53.6918708,15.5379051 52.9175298,15.5937108 C52.7778946,15.6056692 52.6382593,15.6096553 52.498624,15.6096553 C51.973934,15.6096553 51.4704008,15.5379051 50.9668676,15.3904185 C49.5789778,14.9878202 48.8215624,13.8717059 48.897727,12.4964937 C48.9188839,12.1297704 48.931578,11.7670333 48.9400408,11.40031 C48.6396134,11.1930317 48.3349547,10.9897394 48.0345273,10.7824611 C48.0387587,11.4800325 48.0387587,12.1736178 48.0260646,12.8711892 C48.0049077,13.74415 47.5944647,14.4536798 46.8285865,14.9519451 C46.1938808,15.3665018 45.4830104,15.5418912 44.7086694,15.5976969 C44.5690342,15.6096553 44.4293989,15.6136414 44.2897637,15.6136414 C44.2347558,15.6136414 44.179748,15.6136414 44.1247402,15.6096553 C44.065501,15.69735 44.0062618,15.7890308 43.9470226,15.8767255 C43.6592893,16.3032406 43.3673247,16.7297557 43.0542032,17.1881597 C42.0767565,16.3869491 41.0993097,15.5857385 40.1091688,14.7725696 C40.1091688,14.9320145 40.1091688,15.0914594 40.1134002,15.2509043 C40.1134002,15.3784602 40.0626237,15.4302798 39.9356826,15.4302798 C39.9356826,15.4302798 39.9314512,15.4302798 39.9314512,15.4302798 C39.347522,15.4223075 38.7635927,15.4143353 38.1796635,15.4103492 C37.7015185,15.4103492 37.2191422,15.4103492 36.7198404,15.4103492 C36.7198404,15.4103492 36.7198404,15.406363 36.7240717,15.406363 C35.9666563,15.4103492 35.2050094,15.4223075 34.447594,15.4302798 C34.4264371,15.4302798 34.4052803,15.4302798 34.3841234,15.4302798 C34.1725548,15.4302798 34.1725548,15.4103492 34.1683235,15.1711818 C34.1683235,14.8044586 34.1683235,14.4417214 34.1598607,14.0749982 C34.1556293,13.9275116 34.2106372,13.8796782 34.3587352,13.8796782 C34.3629665,13.8796782 34.3629665,13.8796782 34.3671979,13.8796782 C34.4687508,13.8796782 34.5745351,13.8796782 34.676088,13.8796782 C34.8876566,13.8796782 35.0992252,13.8796782 35.3107937,13.8796782 C35.4969741,13.8796782 35.6831544,13.8796782 35.8693347,13.8876504 C35.8777975,13.8876504 35.8862602,13.8876504 35.8904916,13.8876504 C36.0682092,13.8876504 36.1020602,13.8159002 36.0978288,13.6604414 C36.0935974,12.0859231 36.0935974,10.5114047 36.0935974,8.94087252 C36.0935974,8.70967742 36.089366,8.4744962 36.0978288,8.2433011 C36.1062915,8.10777294 36.0555151,8.05993947 35.941268,8.05993947 C35.9243426,8.05993947 35.9031857,8.05993947 35.8862602,8.06392559 C35.4038839,8.11175906 34.9215076,8.13966192 34.4433626,8.19148151 C34.4264371,8.19148151 34.4095116,8.19546763 34.3925861,8.19546763 C34.2698764,8.19546763 34.2444881,8.1356758 34.2360254,8.01609212 C34.2148685,7.62146601 34.1810176,7.22285377 34.1471666,6.82822765 C34.1471666,6.81228316 34.1217784,6.8003248 34.1090843,6.78836643 C34.1090843,6.76046357 34.1090843,6.73654684 34.1090843,6.70864398 C34.6718566,6.60101868 35.2303977,6.49737949 35.7931701,6.38975419 C36.2797778,6.29807337 36.7621541,6.18646195 37.2529932,6.12667011 C37.3841657,6.11072562 37.5195696,6.1067395 37.6549734,6.1067395 C37.8750047,6.1067395 38.1034988,6.11869787 38.3489183,6.11869787 C38.3489183,8.40673212 38.3489183,10.6947664 38.3489183,13.0027312 C38.6451143,12.5682439 38.9413103,12.1337566 39.2332749,11.6952831 C39.3221337,11.563741 39.3729102,11.5677272 39.4829258,11.6633941 C39.8849061,11.9942423 40.2868864,12.3211043 40.6888667,12.6519525 C40.6888667,12.604119 40.693098,12.5562855 40.693098,12.5044659 C40.7650314,11.2568096 40.7438745,10.0011811 40.7481059,8.74953864 C40.7481059,8.33896804 40.8623529,7.98021702 41.0612274,7.61349376 C41.3278037,7.11522846 41.7255527,6.78039418 42.2163917,6.50933786 C42.6733798,6.25821215 43.1726816,6.14660072 43.6889089,6.06687828 C43.9047089,6.0349893 44.1205088,6.01904481 44.3320774,6.01904481 C44.3320774,6.01904481 44.3320774,6.01904481 44.3320774,6.01904481 L44.3320774,6.01904481 L44.3320774,6.01904481 C44.7255949,6.01904481 45.1106497,6.06687828 45.4957045,6.15058685 C46.5112336,6.36583745 47.3490451,6.83221377 47.7891078,7.77692478 C47.8737352,7.96028641 47.9456685,8.14763416 47.9922136,8.34295416 C48.3137978,8.56219089 48.6396134,8.78142762 48.9611976,9.00066435 C48.9611976,8.91695578 48.9611976,8.83324721 48.9611976,8.74953864 C48.9611976,8.33896804 49.0754446,7.98021702 49.2743191,7.61349376 C49.5408955,7.11522846 49.9386444,6.78039418 50.4294835,6.50933786 C50.8864716,6.25821215 51.3857734,6.14660072 51.9020007,6.06687828 C52.1178006,6.0349893 52.3336006,6.01904481 52.5451691,6.01904481 C52.5451691,6.01904481 52.5451691,6.01904481 52.5451691,6.01904481 L52.5451691,6.01904481 L52.5451691,6.01904481 C52.9259926,6.01904481 53.3025846,6.06687828 53.6749453,6.1426146 C54.1234706,5.42909869 54.5677646,4.71558279 55.01629,4.00206688 C54.6608548,3.80674688 54.3223451,3.61939913 53.9415217,3.40813464 C54.2927255,3.28057873 54.6016156,3.16498118 54.9147371,3.05336975 C55.6552271,2.78629955 56.395717,2.52321547 57.1319757,2.25215915 C57.4239403,2.14453385 57.4112462,2.1365616 57.4535599,2.41957629 C57.5762696,3.2048424 57.7074422,3.99010851 57.8301519,4.77537462 C57.8682343,5.01852809 57.8893911,5.26566768 57.9232421,5.54868237 C57.5339559,5.34539012 57.1869835,5.16202849 56.8188542,4.97069462 Z"/>
    <path d="M37.9342439,13.5926773 C38.01464,13.4770798 38.0950361,13.3614822 38.1754321,13.2418986 L38.1754321,6.27017052 C38.1077302,6.27017052 38.0400282,6.2661844 37.9765577,6.2661844 C37.8623106,6.26219827 37.7565263,6.25821215 37.6507421,6.25821215 C37.5026441,6.25821215 37.3799343,6.2661844 37.2699186,6.27814276 C36.9229462,6.31800399 36.5759737,6.38975419 36.2332327,6.45751827 C36.0978288,6.48542113 35.9581935,6.51332398 35.8185583,6.53724072 C35.4292721,6.60899092 35.0315232,6.68472725 34.6464684,6.76046357 C34.5364528,6.78039418 34.4222057,6.80431092 34.3121901,6.82424153 L34.3248842,7.00760316 C34.3502724,7.3344652 34.3756607,7.66929948 34.3968175,8.00014763 C34.3968175,8.012106 34.3968175,8.02406437 34.4010489,8.02805049 C34.4052803,8.02805049 34.413743,8.02805049 34.4179744,8.02805049 C34.6845508,8.00014763 34.9553585,7.98021702 35.2177036,7.95630029 C35.4292721,7.9403558 35.6493034,7.92042519 35.8651034,7.90049457 C35.8904916,7.89650845 35.9158798,7.89650845 35.9370367,7.89650845 C36.0385896,7.89650845 36.123217,7.92441131 36.1782248,7.98021702 C36.271315,8.07189784 36.2628523,8.19945375 36.2628523,8.2433011 C36.2543895,8.41071824 36.2543895,8.5821215 36.2586209,8.74555252 C36.2586209,8.80933048 36.2586209,8.86912231 36.2586209,8.93290027 L36.2586209,9.87761128 C36.2586209,11.1172953 36.2586209,12.3968406 36.2628523,13.6524692 C36.2628523,13.7600945 36.2501582,13.8677198 36.1655307,13.9514284 C36.0809033,14.0311508 35.9624249,14.0431092 35.8820288,14.0431092 C35.8735661,14.0431092 35.8651034,14.0431092 35.8524092,14.0431092 C35.6916171,14.0391231 35.5223623,14.0351369 35.2980996,14.0351369 C35.1923153,14.0351369 35.086531,14.0351369 34.9807468,14.0351369 C34.8749625,14.0351369 34.7691782,14.0351369 34.6633939,14.0351369 C34.5491469,14.0351369 34.447594,14.0351369 34.3545038,14.0351369 L34.3460411,14.0351369 C34.3333469,14.0351369 34.3248842,14.0351369 34.3164215,14.0351369 C34.3164215,14.0431092 34.3164215,14.0510814 34.3164215,14.0630398 C34.3248842,14.3340961 34.3248842,14.6131247 34.3248842,14.8801949 C34.3248842,14.9758618 34.3248842,15.0675426 34.3248842,15.1632096 C34.3248842,15.1990847 34.3248842,15.2349598 34.3248842,15.2628626 C34.3375783,15.2628626 34.3502724,15.2628626 34.3671979,15.2628626 C34.3841234,15.2628626 34.4052803,15.2628626 34.4306685,15.2628626 C34.7268645,15.2588765 35.0315232,15.2548904 35.3234878,15.2548904 C35.8058642,15.2509043 36.305166,15.242932 36.8002364,15.242932 C36.8129305,15.2230014 36.8256247,15.1990847 36.8383188,15.1831402 C37.2064481,14.6489998 37.570346,14.1228316 37.9342439,13.5926773 Z"/>
  </g>
</svg>
