<svg xmlns="http://www.w3.org/2000/svg" width="20" height="24" viewBox="0 0 20 24">
  <g fill="#FFF" transform="translate(.259 .58)">
    <path d="M8.82021865,2.69005848 C8.95934445,2.69005848 9.09847024,2.8202226 9.09847024,2.95038672 C9.09847024,3.08055084 8.95934445,3.21071496 8.82021865,3.21071496 C8.68109286,3.21071496 8.54196706,3.08055084 8.54196706,2.95038672 C8.4955918,2.8202226 8.63471759,2.69005848 8.82021865,2.69005848 Z M9.46947236,2.34295416 C9.60859816,2.34295416 9.74772395,2.47311828 9.74772395,2.6032824 C9.74772395,2.77683456 9.60859816,2.86361064 9.46947236,2.86361064 C9.33034657,2.86361064 9.19122077,2.73344652 9.19122077,2.6032824 C9.14484551,2.42973024 9.2839713,2.34295416 9.46947236,2.34295416 Z M10.1187261,2.03923788 C10.2578519,2.03923788 10.3969777,2.169402 10.3969777,2.29956612 C10.3969777,2.42973024 10.2578519,2.55989436 10.1187261,2.55989436 C9.97960028,2.55989436 9.84047448,2.42973024 9.84047448,2.29956612 C9.84047448,2.169402 9.97960028,2.03923788 10.1187261,2.03923788 Z M10.8607303,1.86568572 C10.9998561,1.86568572 11.1389819,1.99584984 11.1389819,2.12601396 C11.1389819,2.25617808 11.0462314,2.3863422 10.8607303,2.3863422 C10.7216045,2.3863422 10.5824787,2.25617808 10.5824787,2.12601396 C10.5824787,1.9524618 10.6752292,1.82229768 10.8607303,1.86568572 Z M12.0664872,1.084701 C12.3447388,1.12808904 12.5766151,1.38841728 12.5302398,1.64874552 C12.5302398,1.9524618 12.2519883,2.25617808 11.9273614,2.21279004 C11.5563593,2.21279004 11.2781077,1.9524618 11.2781077,1.64874552 C11.2781077,1.38841728 11.4636088,1.17147708 11.7418603,1.084701 L11.7418603,0.73759668 L11.4172335,0.73759668 L11.4172335,0.47726844 L11.7418603,0.47726844 L11.7418603,0 L12.0201119,0 L12.0201119,0.47726844 L12.3447388,0.47726844 L12.3447388,0.73759668 L12.0201119,0.73759668 L12.0201119,1.084701 L12.0664872,1.084701 Z M15.8228837,3.12393888 C15.9620094,3.12393888 16.1011352,3.254103 16.1011352,3.38426712 C16.1011352,3.51443124 15.9620094,3.64459536 15.8228837,3.64459536 C15.6373826,3.64459536 15.5446321,3.51443124 15.5446321,3.38426712 C15.5446321,3.254103 15.6837579,3.12393888 15.8228837,3.12393888 Z M15.2200052,2.64667044 C15.359131,2.64667044 15.4982568,2.77683456 15.4982568,2.90699868 C15.4982568,3.0371628 15.359131,3.16732692 15.2200052,3.16732692 C15.0808794,3.16732692 14.9417536,3.0371628 14.9417536,2.90699868 C14.9417536,2.77683456 15.0808794,2.64667044 15.2200052,2.64667044 Z M14.5243762,2.29956612 C14.663502,2.29956612 14.8026278,2.42973024 14.8026278,2.55989436 C14.8026278,2.69005848 14.663502,2.8202226 14.5243762,2.8202226 C14.3852504,2.8202226 14.2461246,2.69005848 14.2461246,2.55989436 C14.2461246,2.42973024 14.3852504,2.34295416 14.5243762,2.29956612 Z M13.782372,2.03923788 C13.9214978,2.03923788 14.0606236,2.169402 14.0606236,2.29956612 C14.0606236,2.42973024 13.9214978,2.55989436 13.782372,2.55989436 C13.6432462,2.55989436 13.5041204,2.42973024 13.5041204,2.29956612 C13.5041204,2.12601396 13.6432462,2.03923788 13.782372,2.03923788 Z M13.0403678,1.86568572 C13.1794936,1.86568572 13.3186193,1.99584984 13.3186193,2.12601396 C13.3186193,2.25617808 13.1794936,2.3863422 13.0403678,2.3863422 C12.901242,2.3863422 12.7621162,2.25617808 12.7621162,2.12601396 C12.7621162,1.9524618 12.901242,1.86568572 13.0403678,1.86568572 Z M12.0201119,2.47311828 C13.5041204,2.47311828 14.9881289,3.08055084 16.0083847,4.1218638 L15.359131,4.42558008 L15.359131,4.16525184 C14.7562526,3.55781928 13.4113699,2.99377476 12.6229904,2.99377476 L12.4838646,3.99169968 L12.0664872,3.60120732 L11.6027345,4.03508772 L11.4172335,2.95038672 C10.628854,2.95038672 9.37672183,3.60120732 8.77384339,4.16525184 L8.77384339,4.42558008 L8.07821441,4.1218638 C9.05209498,3.08055084 10.5361035,2.47311828 12.0201119,2.47311828 Z M14.9881289,7.41935484 L16.1011352,4.38219204 L15.3127557,4.7726844 L15.2663805,5.2065648 C15.1736299,5.03301264 14.9881289,4.7726844 14.7562526,4.7726844 C14.1533741,4.7726844 14.1997494,5.55366912 14.3852504,5.98754952 L14.663502,5.98754952 C14.663502,5.77060932 14.5707515,5.46689304 14.8026278,5.46689304 C15.0345042,5.46689304 15.0808794,6.24787776 14.3388752,6.24787776 C13.9678731,6.24787776 13.6896215,5.94416148 13.8287473,5.2065648 L14.1069989,5.2065648 L14.1533741,4.85946048 L13.8751225,4.85946048 L14.0142483,4.1218638 L13.6432462,4.1218638 L13.5504957,4.81607244 L13.3186193,4.81607244 C13.3186193,4.94623656 13.2722441,5.03301264 13.2722441,5.16317676 C13.3649946,5.16317676 13.4113699,5.16317676 13.5041204,5.16317676 C13.4577451,5.59705716 13.3186193,6.24787776 12.6693656,6.20448972 C12.0664872,6.16110168 12.1592377,5.38011696 12.4838646,5.423505 C12.6693656,5.423505 12.5766151,5.77060932 12.4838646,5.94416148 L12.8084914,5.94416148 C13.1331183,5.46689304 13.2258688,4.72929636 12.7157409,4.72929636 C12.4838646,4.72929636 12.3911141,4.85946048 12.2519883,4.9896246 L12.3447388,4.338804 L11.9737367,3.94831164 L11.509984,4.29541596 L11.6027345,4.94623656 C11.4636088,4.85946048 11.324483,4.68590832 11.0926066,4.68590832 C10.628854,4.72929636 10.7679798,5.38011696 10.9998561,5.90077344 L11.3708582,5.90077344 C11.2781077,5.68383324 11.2317324,5.38011696 11.4172335,5.38011696 C11.8809861,5.33672892 11.7882356,6.11771364 11.1853572,6.16110168 C10.5824787,6.16110168 10.5361035,5.51028108 10.4897282,5.11978872 C10.5824787,5.11978872 10.628854,5.11978872 10.7679798,5.11978872 C10.7679798,4.9896246 10.7216045,4.90284852 10.7216045,4.7726844 L10.4433529,4.7726844 L10.3042271,4.03508772 L9.93322501,4.03508772 L10.0259755,4.7726844 L9.74772395,4.7726844 L9.79409922,5.07640068 L10.0723508,5.07640068 C10.2114766,5.81399736 9.93322501,6.11771364 9.56222289,6.11771364 C8.86659392,6.11771364 8.91296918,5.33672892 9.09847024,5.33672892 C9.33034657,5.33672892 9.23759604,5.68383324 9.23759604,5.90077344 L9.51584763,5.90077344 C9.79409922,5.423505 9.70134869,4.68590832 9.09847024,4.68590832 C8.86659392,4.68590832 8.77384339,4.9896246 8.72746812,5.11978872 L8.82021865,4.7726844 L7.93908862,4.338804 L9.14484551,7.3759668 L14.9881289,7.3759668 L14.9881289,7.41935484 Z M8.17096494,3.08055084 C8.31009074,3.08055084 8.44921653,3.21071496 8.44921653,3.34087908 C8.44921653,3.4710432 8.31009074,3.60120732 8.17096494,3.60120732 C8.03183915,3.60120732 7.89271336,3.4710432 7.89271336,3.34087908 C7.89271336,3.21071496 8.03183915,3.08055084 8.17096494,3.08055084 Z"/>
    <path d="M13.4938448,8.56366723 C12.5544194,9.00509338 11.4271089,9.18166384 10.2997984,9.04923599 L10.581626,8.38709677 C11.2861951,6.70967742 12.3665343,5.20882852 13.540816,4.237691 C14.2453851,3.66383701 14.9499541,3.3106961 15.6075519,3.3106961 C17.3924602,3.26655348 17.2985176,6.57724958 13.7287011,8.43123939 C13.6347586,8.51952462 13.540816,8.56366723 13.4938448,8.56366723 M12.5544194,14.9643463 C11.1922525,14.9643463 9.54825811,14.3022071 9.50128684,12.2716469 C9.50128684,11.9626486 9.54825811,11.6536503 9.59522938,11.344652 C10.8164824,11.1239389 12.1786492,10.7266553 13.4938448,10.196944 C15.4666381,9.3582343 17.2985176,8.1663837 18.1909717,6.57724958 C18.6137132,5.95925297 18.8015982,5.29711375 18.8015982,4.67911715 C18.8015982,3.35483871 17.7682303,2.64855688 16.1242359,2.69269949 C15.2317817,2.69269949 14.3393276,2.91341256 13.4468735,3.26655348 C11.1452813,4.19354839 8.98460287,6.17996604 7.76334986,8.38709677 C7.76334986,8.38709677 7.71637859,8.38709677 7.71637859,8.38709677 C7.34060843,8.21052632 6.82392446,7.8573854 6.21329796,7.41595925 C5.88449907,7.15110357 5.60267145,6.88624788 5.27387256,6.57724958 C5.13295875,6.40067912 4.94507367,6.22410866 4.7571886,6.0475382 C4.56930352,5.82682513 4.24050463,5.47368421 4.00564828,5.16468591 C4.00564828,5.16468591 3.86473447,4.98811545 3.77079193,4.89983022 C3.67684939,4.63497453 3.58290685,4.41426146 3.39502177,4.237691 C3.2071367,3.97283531 3.01925162,3.66383701 2.83136654,3.39898132 C2.54953892,3.00169779 2.2677113,2.56027165 2.03285495,2.16298812 C1.98588368,2.1188455 1.93891241,1.98641766 1.93891241,1.98641766 C1.75102733,1.63327674 1.61011352,1.36842105 1.42222845,1.01528014 C1.37525718,0.971137521 1.32828591,0.838709677 1.28131464,0.750424448 C1.23434337,0.706281834 1.1873721,0.617996604 1.14040083,0.57385399 C1.04645829,0.397283531 0.858573209,0.264855688 0.7176594,0.220713073 C0.67068813,0.220713073 0.62371686,0.220713073 0.576745591,0.264855688 C0.482803051,0.353140917 0.482803051,0.485568761 0.482803051,0.57385399 C0.482803051,0.750424448 0.482803051,0.971137521 0.482803051,1.14770798 C0.482803051,1.23599321 0.529774321,1.41256367 0.576745591,1.63327674 C0.67068813,2.07470289 1.14040083,3.13412564 1.14040083,3.13412564 C1.28131464,3.35483871 1.37525718,3.57555178 1.51617098,3.79626486 C1.75102733,4.14940577 1.93891241,4.50254669 2.22074003,4.85568761 C2.64348146,5.38539898 3.11319416,5.87096774 3.53593558,6.3565365 C3.53593558,6.3565365 3.48896431,6.3565365 3.44199304,6.31239389 C3.25410796,6.17996604 2.87833781,5.82682513 2.737424,5.7385399 C2.40862511,5.47368421 2.12679749,5.20882852 1.84496987,4.89983022 C1.84496987,4.85568761 1.14040083,4.28183362 0.905544479,4.06112054 C0.811601939,3.9286927 0.529774321,3.70797963 0.388860512,3.66383701 C0.341889242,3.66383701 0.200975433,3.6196944 0.154004163,3.70797963 C0.154004163,3.70797963 0.154004163,3.75212224 0.107032893,3.75212224 C0.107032893,3.79626486 0.107032893,3.88455008 0.107032893,3.9286927 C0.154004163,4.06112054 0.154004163,4.14940577 0.200975433,4.237691 C0.247946702,4.32597623 0.294917972,4.45840407 0.341889242,4.5466893 C0.482803051,4.81154499 0.62371686,5.07640068 0.811601939,5.34125637 C0.999487018,5.60611205 1.1873721,5.82682513 1.37525718,6.0475382 C1.89194114,6.62139219 2.50256765,7.06281834 3.11319416,7.5483871 C3.44199304,7.72495756 3.72382066,7.94567063 4.05261955,8.12224109 C4.19353336,8.1663837 4.38141844,8.25466893 4.38141844,8.29881154 L4.38141844,8.29881154 C3.72382066,8.03395586 3.06622289,7.72495756 2.45559638,7.41595925 C2.12679749,7.23938879 1.84496987,7.06281834 1.56314225,6.88624788 C1.46919972,6.84210526 1.1873721,6.6655348 1.04645829,6.57724958 C0.952515748,6.53310696 0.811601939,6.44482173 0.67068813,6.48896435 C0.529774321,6.53310696 0.576745591,6.75382003 0.62371686,6.84210526 C0.62371686,6.84210526 0.7176594,7.06281834 0.811601939,7.15110357 C0.952515748,7.37181664 1.14040083,7.5483871 1.32828591,7.72495756 C1.42222845,7.81324278 1.51617098,7.90152801 1.61011352,7.98981324 C1.7979986,8.12224109 1.98588368,8.29881154 2.17376876,8.43123939 C2.40862511,8.51952462 2.69045273,8.69609508 2.97228035,8.82852292 C3.06622289,8.87266553 3.16016543,8.96095076 3.30107923,9.00509338 C3.58290685,9.13752122 3.91170574,9.26994907 4.19353336,9.40237691 C4.24050463,9.40237691 4.66324606,9.57894737 4.85113114,9.6672326 C4.85113114,9.6672326 5.13295875,9.75551783 5.27387256,9.79966044 L5.27387256,9.79966044 C5.17993002,9.79966044 4.52233225,9.71137521 4.42838971,9.6672326 C4.14656209,9.62308998 3.91170574,9.57894737 3.62987812,9.53480475 C3.30107923,9.49066214 2.97228035,9.40237691 2.64348146,9.31409168 C2.50256765,9.26994907 2.31468257,9.22580645 2.22074003,9.31409168 C2.17376876,9.3582343 2.17376876,9.3582343 2.17376876,9.3582343 C2.17376876,9.44651952 2.17376876,9.53480475 2.2677113,9.62308998 C2.45559638,9.79966044 2.59651019,9.88794567 2.83136654,10.0203735 C2.97228035,10.1528014 3.25410796,10.2410866 3.3480505,10.2852292 C3.44199304,10.3293718 3.8177632,10.4617997 3.91170574,10.5059423 C4.09959082,10.5500849 4.66324606,10.7266553 5.03901621,10.770798 C5.41478637,10.8149406 5.74358526,10.8590832 6.07238415,10.9032258 C5.97844161,10.9473684 5.8375278,10.9473684 5.74358526,11.0356537 C5.69661399,11.0356537 5.69661399,11.0797963 5.69661399,11.1239389 C5.69661399,11.1680815 5.69661399,11.2563667 5.74358526,11.2563667 C5.88449907,11.3887946 6.11935542,11.4329372 6.26026923,11.4770798 C6.40118304,11.5212224 6.54209685,11.565365 6.77695319,11.565365 C6.77695319,11.7419355 6.77695319,11.9626486 6.77695319,12.139219 C6.82392446,14.0373514 7.8572924,16.37691 11.2392238,16.3327674 C12.0377354,16.3327674 12.836247,16.1561969 13.540816,15.8471986 C15.7014944,15.008489 17.3924602,13.3310696 17.6273165,12.9779287 L17.2515463,12.6247878 C15.9833221,13.6400679 14.8560116,14.5229202 13.540816,14.8319185 C13.2120171,14.9202037 12.8832183,14.9643463 12.5544194,14.9643463" transform="translate(0 6.452)"/>
  </g>
</svg>
