<svg xmlns="http://www.w3.org/2000/svg" xmlns:xlink="http://www.w3.org/1999/xlink" width="54" height="44"><defs><path id="a" d="M53.5 0H0V44h53.5V.1z"/><path id="c" d="M0 0v43.8h53.4V0z"/></defs><g fill="none" fill-rule="evenodd"><g transform="translate(.5)"><mask id="b" fill="#fff"><use xlink:href="#a"/></mask><path fill="#FCFCFC" d="M.1 0L0 .2H53.4v0H.2z" mask="url(#b)"/></g><g transform="translate(.5 .1)"><mask id="d" fill="#fff"><use xlink:href="#c"/></mask><path fill="#FCFCFC" d="M53 11.6H.4c-.2 0-.2 0-.2-.2v-9-2C.2.2.2.2.4.2H53c.2 0 .2 0 .2.2v11c0 .2 0 .2-.2.2zm-4 5.9V17l-.1-1.5h-.6V15h.6v-.5l.1-.2.7-.2h.1v1h.7v.5h-.7V17.1c0 .4.2.6.6.5h.2v.5a2 2 0 01-1 .1c-.4 0-.6-.3-.7-.7zM46.6 16l.4.2.4.1c.3.2.5.5.5 1 0 .4-.2.6-.6.8a2 2 0 01-1 .1h-.7V18v-.6h.1c.3.2.7.3 1 .2h.1c.3-.1.3-.4 0-.6l-.4-.2-.5-.2a.9.9 0 010-1.5c.3-.2.7-.3 1-.3l.8.1v.7l-.7-.1h-.4l-.2.3s0 .2.2.2zm-3.1-.6a2 2 0 00-1 .2h-.2v-.5c.6-.3 1.2-.3 1.8-.1.5.1.8.4.8 1v2.2h-.8v-.5c-.2.3-.4.4-.7.5h-1a1 1 0 01-.5-.9c0-.4.1-.7.5-1l.9-.1h.7c0-.4-.1-.7-.5-.8zm-2 .3v.7H40v1.8h-1v-4.3h2.8v.6H40v1.2h1.7zm7.8 17.1a13 13 0 01-1 4.6c-.5.8-1 1.5-1.6 2a6.1 6.1 0 01-3.7 1.9H42c-1 0-2-.1-3-.5s-2-1.2-2.7-2.2c-.7-1-1-2.2-1.4-3.4l-.3-3c0-1.4 0-2.8.3-4.3.3-1.3.7-2.5 1.5-3.6 1-1.5 2.5-2.4 4.3-2.6a8 8 0 013.6.2c1.4.5 2.4 1.3 3.3 2.4.7 1 1.1 2.2 1.4 3.3a15.2 15.2 0 01.4 5.2zM33.9 19.6h-.3v-.4-.2h.4c.2 0 .3 0 .4-.2l.2-.5v-.2l-1.2-3v-.2H34.2l.2.1.6 2.2v.2l.4-1.3c0-.4.2-.7.3-1v-.2h.9v.2l-1.2 3.4-.2.5c-.3.6-.7.7-1.3.6zM32.1 15H33v3l-.1.6c-.2.6-.6 1-1.3 1h-1.5l-.1-.3V19l.8.1h.5c.5-.1.7-.4.7-.8v-.5c-.6.7-1.7.6-2-.2-.4-.7-.4-1.4 0-2 .4-.8 1.5-.8 2-.3V15zm-3 2.5c-.3.5-.8.7-1.4.7H27c-.6-.2-1-.7-1.1-1.3v-1c.3-.6.8-1 1.4-1h.9c.6.2 1 .7 1 1.4.1 0 0 .2 0 .2.1.4 0 .7-.1 1zm-3.8-.9V18.2h-1V18v-4.3c0-.2 0-.2.2-.2h.6l.2.1v3zm-5-.5c.3-.7.8-1.2 1.5-1.2h.8c.6.2 1 .6 1.1 1.3v.9c-.2.6-.7 1-1.3 1.1H22c-.4 0-.9 0-1.2-.4a1.8 1.8 0 01-.4-1.7zm12.4 19.7c-.3 1-.7 2-1.4 3a6 6 0 01-3.6 2.3c-1.4.3-2.8.3-4.2 0a6 6 0 01-3.4-2.6c-.7-1-1-2.2-1.3-3.4a17.2 17.2 0 010-7 10 10 0 011.3-3.5c1-1.7 2.6-2.6 4.5-3a8 8 0 013.5.3c1.5.5 2.7 1.4 3.5 2.7.6 1 1 2 1.3 3.1l.3 2.9v.9c0 1.4 0 2.9-.5 4.3zm-14.9-20a1 1 0 00-.2.6v1.8h-.9v-3.3h.8v.5c.4-.5.8-.6 1.4-.5.4 0 .7.4.8.8v2.4h-.9v-1.8-.4c0-.2-.2-.3-.4-.4-.2 0-.4 0-.6.2zm-4-.5c.1 0 .2 0 .3-.2.3-.3 1-.4 1.4 0 .3.1.4.4.4.7V18.2H15V18v-1.9-.1c0-.3-.2-.4-.4-.5-.2 0-.5 0-.6.3l-.1.5v1.9H13h-.2V18v-4.3c0-.2 0-.2.2-.2h.6l.2.1v1.7zm-3.1 1.6c.1.4.4.6.7.7h.8l.1-.1v.6c-.6.2-1.3.2-1.8 0-.7-.4-.9-1-.8-1.7 0-1 .8-1.5 1.6-1.5h1v.7l-.5-.1c-.4 0-.7 0-.9.3-.3.3-.3.7-.2 1.1zm5.7 19.8a5.8 5.8 0 01-2.2 3c-1.1.8-2.3 1.2-3.5 1.4-1.2.3-2.4.2-3.6.2a15.6 15.6 0 01-3.6-.7l-.1-.1.1-1.9v-.9-.1h.2a11 11 0 005 .7c.8 0 1.6-.2 2.3-.7a3 3 0 001.5-2.4c0-.5 0-1-.2-1.5-.2-.8-.8-1.3-1.5-1.6-.6-.3-1.2-.4-1.9-.5a13.4 13.4 0 00-5 .6v-.3-3.2-2.5l.1-2.6V22l.2-.1H15.6c.2 0 .2 0 .2.2v2.4c0 .2 0 .2-.2.2H8c-.2 0-.2 0-.2.2l-.1 2.6-.1 1.7h.3a11.1 11.1 0 015.1.3 4.9 4.9 0 013.6 4c.2 1 .2 2.2-.2 3.2zM7.6 17.6c.5.1.9 0 1.3-.1H9v.3c0 .3 0 .3-.3.4H7.3c-.6-.2-1-.6-1-1.2-.2-.6-.1-1.1.3-1.6.3-.4.8-.6 1.3-.5h.5c.5.2.7.6.8 1.1v.8h-2c-.1.3.1.6.4.8zm-1.1-3.1l-.2.1H5.1v3.6h-1v-3.6H2.8V14h3.7v.6zm47 29.1V0H.1 0v43.8h53.4v-.2z" mask="url(#d)"/></g><path fill="#FCFCFC" d="M5.1 4.6v3c.7 0 1.3 0 1.7-.6.3-.5.3-1.3 0-1.8-.4-.5-1-.8-1.7-.6M4 8.6v-.2-4.6c0-.1 0-.2.2-.2h1.3c.6 0 1 0 1.6.3.8.4 1.2 1 1.2 1.8.1.5 0 1-.1 1.4-.3.7-.9 1.1-1.6 1.3l-1 .2H4m13-1.9c0-.2 0-.4-.2-.7-.2-.3-.8-.4-1 0-.2.5-.2 1 0 1.5.3.4.8.3 1 0l.2-.8m1.2 0c0 .7-.3 1.3-.9 1.7a2 2 0 01-2.5-.4c-.2-.3-.4-.7-.4-1.2 0-.4.1-.8.4-1.2.2-.3.4-.5.8-.6.4-.2.9-.2 1.4 0 .7.1 1.2.8 1.2 1.6v.1M11 6.3l-.3-.6a.6.6 0 00-.7.1l-.2.5H11zm1 .8H9.9c0 .2.1.4.3.5l.8.1h.7v-.1l.3.8-.8.2a3 3 0 01-1.2 0c-.7-.3-1.2-.9-1.2-1.6 0-.5 0-1 .3-1.4.3-.5.7-.7 1.3-.7.4 0 .8 0 1.2.3.4.3.5.7.6 1.2V7zm15.2-.8h1.2c0-.4-.3-.6-.6-.6-.4 0-.6.3-.6.6m2.3.8h-2.3c0 .2.2.4.3.5.3.1.6.2.9.1l.7-.1.2.8-.8.2a3 3 0 01-1.2 0c-.7-.3-1.2-.9-1.2-1.6 0-.5 0-.9.2-1.3.4-.7 1-1 1.8-.8 1 0 1.3.8 1.4 1.5v.7m-8.6-1.3h-.4a22.4 22.4 0 000-.9h.4v-.6c0-.4 0-.4.4-.4h.8v1h.6c.2 0 .2 0 .2.2v.6l-.1.1H22V6a334.7 334.7 0 000 1.2c0 .3.2.4.5.4h.4v.9c-.4.1-.8.2-1.2.1-.5 0-.8-.4-.9-1V6.2v-.4m2.8-.9V4H25v1h.8v.8l-.1.1h-.7v1.3c0 .4.2.6.6.5h.3v.7c0 .2 0 .2-.2.3h-.8c-.6 0-1-.4-1-1V6.2v-.4h-.5V5h.4M12.7 6V3.8c0-.1 0-.2.1-.1h1a1385.4 1385.4 0 000 4.9h-1l-.1-.2V6.1m6-1.2H20v3.5l-.1.2h-1v-.1V5m.5-.4h-.5v-.1-.7-.1a48.8 48.8 0 001.1 0v.8h-.6M23 31.7l.1-2.7c.1-1 .3-1.9.7-2.8.3-.7.8-1.2 1.6-1.5 1.2-.4 2.6 0 3.4 1.5.3.6.5 1.3.6 2l.2 2.5v1.7c0 1.1-.1 2.3-.4 3.5-.1.5-.3 1.1-.7 1.6-.5.9-1.3 1.3-2.4 1.2-1 0-1.8-.5-2.3-1.5-.3-.6-.5-1.3-.6-2-.2-1.2-.2-2.3-.2-3.5m16.1 0l.2-2.8c0-.9.2-1.8.6-2.6.3-.6.7-1 1.2-1.4 1-.6 2.8-.5 3.7 1 .4.7.6 1.3.7 2 .2 1 .2 2 .2 3a53.9 53.9 0 01-.3 5c-.2.5-.3 1-.6 1.4-.5 1-1.4 1.5-2.5 1.4-1 0-1.8-.5-2.3-1.5-.4-.6-.5-1.4-.6-2.1-.2-.9-.2-1.7-.2-2.6v-.8m-6.6-15l-.2.7c-.1.2-.3.4-.6.4a.6.6 0 01-.6-.4V16c.2-.3.3-.4.6-.4s.5.1.6.3l.1.8m-3.7 0l-.1.6c-.1.3-.4.4-.7.4a.6.6 0 01-.6-.4V16c.2-.3.4-.4.6-.4.3 0 .5.1.7.4v.7h.1m-5.5 0l-.2.6c0 .3-.3.4-.6.4a.6.6 0 01-.6-.4c-.2-.4-.2-.8 0-1.3 0-.2.3-.4.6-.4s.5.1.6.4l.1.3v.4m21.4 0c0 .6-.3 1.1-.8 1-.3 0-.4 0-.5-.2 0-.2 0-.4.2-.6l.7-.1h.4m-37-.5c0-.3 0-.5.3-.7h.7c.3.2.3.5.3.7H7.6zM31.4 8A.7.7 0 1130 8a.7.7 0 011.3 0"/></g></svg>