<svg xmlns="http://www.w3.org/2000/svg" width="128" height="108"><g fill="none"><path fill="#FFF" d="M44.1 27.03H51v3.95l12.7-10.76 30.1 27.7-.98 3.24-3.4.67L84 46.28V70.1l14.04-8.04 2.65 1.17 1.36 3.87-19 16.42-27.08 4.4-19.9-6.84v3l-4.63 2.07-4.4-2.08v-28l2.1-1.54h4.5l2.43 2.24v1.97h7.04V47.07l-5.48 4.76-3.07-.82-.26-3.07 9.8-9.47z"/><path fill="#153052" fill-rule="nonzero" d="M35.13 82.8s-.93 2.07-2.08 2.07h-2.87a2.1 2.1 0 0 1-2.1-2.08V57.57c0-1.15.94-2.08 2.1-2.08h2.87c1.15 0 2.08.93 2.08 2.08v25.2zm9.14-35.7l19.4-18.33 19.05 18a1768 1768 0 0 0-.1 23.4L80 71.86a42.16 42.16 0 0 1-3.63-.38 6.52 6.52 0 0 0-2.22-4.6 9.06 9.06 0 0 0-3.24-1.75V51.6c0-1.14-.95-2.08-2.1-2.08h-9.9c-1.17 0-2.1.94-2.1 2.08v12.6c-2.84-.8-4.84-2.23-4.87-2.25a22.76 22.76 0 0 0-7.66-3.7V47.1zm-6.68 3.44c-1.17.83-2.16.12-2.45-.14-.67-1-.16-2 0-2.28l28.53-26.87L92.2 48.1c.18.3.68 1.28.02 2.3-.3.25-1.3.96-2.45.13L64.5 26.68c-.2-.2-.4-.37-.82-.37-.42 0-.62.2-.82.38L37.6 50.54zm31.2 14.1c-3.4-.55-6.72-.07-6.93-.04a11.62 11.62 0 0 1-3 0v-13h9.93v13.05zm31.6 2.6l-16.1 14c-.03.02-1.78 1.9-5.48 2.6a5070.4 5070.4 0 0 0-21.34 2.92c-.02 0-1.82.62-5-.52l-15.25-5.66V59.75c2-.25 7.58-.44 13.47 3.86.22.17 5.37 3.9 11.48 3.06.07 0 7.32-1.07 10.58 1.8.82.73 1.3 1.64 1.47 2.77l-23.3-3a1.04 1.04 0 0 0-.26 2.07l26.36 3.38c1.2.14 2.27.26 3.5.12.84-.1 6.16-3.48 16-10.15.12-.1 1.8-1.33 3.32.02.2.18 1.88 1.84.56 3.6zm-55.6-39.3h5.47v2.95l-5.48 5.26v-8.2zm56.44 34.2c-2.2-1.98-4.8-1.02-5.9-.2L84.72 68.8V48.64l3.66 3.46c.9.7 1.73.92 2.48.92 1.28 0 2.35-.67 2.9-1.2a4.3 4.3 0 0 0 .1-4.98c-.02-.04-9.72-9.18-29.08-27.42-.32-.33-1-.65-1.93-.2-.06.04-3.56 3.3-10.5 9.83v-1.1c0-1.14-.93-2.08-2.08-2.08H44.8a2.1 2.1 0 0 0-2.1 2.08v10.2l-9.07 8.54c-.2.24-1.85 2.6-.13 5 .97.97 3.17 2.13 5.4.47l3.28-3.1v8.73a18.9 18.9 0 0 0-4.96-.14 4.2 4.2 0 0 0-4.17-4.24h-2.87A4.17 4.17 0 0 0 26 57.58v25.2c0 2.3 1.87 4.16 4.18 4.16h2.87c2.3 0 4.17-1.86 4.17-4.15l14.53 5.4c1.8.62 3.24.8 4.3.8 1.06 0 23.1-3.1 23.12-3.1 4.12-.78 6.17-2.76 6.54-3.15 10.83-9.38 16.25-14.1 16.28-14.13 2.13-2.65.46-5.4-.74-6.5z"/></g></svg>