<svg xmlns="http://www.w3.org/2000/svg" width="128" height="108"><g fill="none"><path fill="#FFF" d="M49.07 28.62l.36 5.06L64.8 20.34l35.44 33.8v4.23h-5.67L89.1 52.8l-.45 34.7H40.02l-.65-34.35-6.42 6.02-4.16-.8-.74-4.23L40.4 42.7V28.6z"/><path fill="#153052" fill-rule="nonzero" d="M99.06 57.36c-.37.33-1.57 1.2-2.96.18L65.5 28.38c-.24-.23-.48-.35-1-.35-.5 0-.76.12-1 .35L32.9 57.54c-1.4 1-2.6.14-2.97-.18-.8-1.23-.2-2.45 0-2.8L64.5 21.75l34.55 32.83c.2.36.8 1.56 0 2.8zm-11.6 29.1h-4.24v-4.13c0-1.83-3.8-5.53-7.65-7.4a34.35 34.35 0 0 0-4.2-1.67 9.63 9.63 0 0 0 2.15-3.36c.33-.86.52-1.67.63-2.34 1.74-.84 2.2-5.53 1.74-6.3.23-1.82 3.65-13.06-6.1-13.5a8.33 8.33 0 0 0-6.34-2.63 14.4 14.4 0 0 0-5.64 1.27c-3.46 1.93-5.37 5.35-5.6 9.93-.1 2.02.13 3.83.34 4.95-1.3.3-.37 5.87 1.8 6.28.54 2.65 1.6 4.57 2.86 5.78-9.55 2.75-11.9 7.3-11.9 8.74v4.38H41V53.34l23.52-22.4L87.57 52.9l-.12 33.55zM59.2 74.86a11.15 11.15 0 0 0 2.25 1c1.2.9 2.62.94 2.92.94 1.57 0 2.7-.6 3.4-1.28.34-.12.94-.36 1.78-.7-.38-.07 9.46 2.53 11.7 7.5v4.14H47.3v-4.38s1.73-4.73 11.88-7.2zm-4.5-12.98c.16-.1.58-.2.86 0 .28.18.75.5 1.17.32a1 1 0 0 0 .6-1.05c-.06-.45-.2-1.7-.16-2.35.05-.35.53-2.65 4.24-2.75.55.02 4.87.18 7.68-1.8 2.63.8 2.25 5.8 2.08 6.87-.07.44.15.88.55 1.06a.95.95 0 0 0 1.18-.24s.48-.42.9-.06c1.1 1.02-.05 4.7-1.5 3.97 0 0 .26 6.22-5.68 7.96 0 0-.5 1-2.23 1 0 0-1.24 0-1.98-.74 0 0-5.95-1.24-6.45-8.2-1.45.85-2.55-3.08-1.24-3.98zm3.98-13.7s2.23-1.07 4.78-1.07c1.87 0 3.5.24 5.47 2.58 7.5-.35 5.35 8.14 5.12 10.23a2.18 2.18 0 0 0-.8-.15c.04-1.33.15-6.84-4.17-7.7-.1 0-3 2-7.68 2s-6.58 2.84-6.2 5.74a2.6 2.6 0 0 0-.83.17c-.44-3.07-.55-9.06 4.3-11.78zM41.62 29.94h6.64v3.6l-6.64 6.43V29.93zM101.1 53L65.84 19.5c-.25-.24-.6-.5-1.35-.5s-.9.25-1.24.5c-.23.17-4.38 4.1-12.46 11.78v-1.34a2.54 2.54 0 0 0-2.54-2.55h-6.63a2.54 2.54 0 0 0-2.54 2.54V42.4l-11 10.43a1.26 1.26 0 0 0-.16.18c-.08.13-2.08 3 0 5.94 1.17 1.2 3.84 2.62 6.54.6l3.98-3.8v32c0 .7.57 1.26 1.27 1.26h49.02c.7 0 1.26-.57 1.26-1.27V55.2l4.45 4.24c1.1.84 2.1 1.12 3 1.12 1.55 0 2.86-.8 3.5-1.46a5.3 5.3 0 0 0 .14-6.1z"/></g></svg>