<svg xmlns="http://www.w3.org/2000/svg" width="128" height="108" fill="none"><path fill="#fff" stroke="#153052" stroke-width="2" d="M97 78h1v-1c0-8.57 0-14.04 0-20.87 0-2.73 0-5.68 0-9.13v-1h-9v32h8zM23.08 34.65L42 23l31.65 23c1.1.83 1.72 2.12 1.72 3.48 0 3.6-4.14 5.66-7 3.47l-1.3-.97L67 92H16l.08-40.68-1.24 1.02c-2.8 2.3-7 .2-6.84-3.4.06-1.2.6-2.3 1.52-3.05l5.56-4.62v-9.52c0-1.1.9-2 2-2h4c1.1 0 2 .9 2 2v2.9zM77 84h-1v4h36v-4H77zM78 72h-1v4h33v-4H78zM74.3 65.8l-.3.3V92h9V66.1l-.3-.3-3.5-3.5-.7-.7-.7.7-3.5 3.5zM89.3 65.8l-.3.3V92h9V66.1l-.3-.3-3.5-3.5-.7-.7-.7.7-3.5 3.5zM104.3 65.8l-.3.3V92h9V66.1l-.3-.3-3.5-3.5-.7-.7-.7.7-3.5 3.5z"/><path stroke="#153052" stroke-width="2" d="M29 92V59h26v33H29zM42 58v35"/><mask id="a"><path fill-rule="evenodd" d="M93.05 16c-4.08 0-7.52 2.7-8.64 6.4-.4-.05-.84-.08-1.28-.08-4.98 0-9.02 4.04-9.02 9.02 0 3.77 2.3 7 5.6 8.35-.7 1.27-1.1 2.72-1.1 4.28 0 4.98 4.05 9.02 9.03 9.02 2.46 0 4.7-.98 6.32-2.58 1.63 1.6 3.86 2.58 6.32 2.58 4.98 0 9.02-4.04 9.02-9.02 0-1.7-.47-3.27-1.28-4.62 2.9-1.5 4.88-4.53 4.88-8.02 0-4.98-4.04-9.02-9.02-9.02-.74 0-1.46.1-2.14.25-1.07-3.8-4.56-6.57-8.7-6.57z" clip-rule="evenodd"/></mask><path fill="#FDFDFD" fill-rule="evenodd" d="M93.05 16c-4.08 0-7.52 2.7-8.64 6.4-.4-.05-.84-.08-1.28-.08-4.98 0-9.02 4.04-9.02 9.02 0 3.77 2.3 7 5.6 8.35-.7 1.27-1.1 2.72-1.1 4.28 0 4.98 4.05 9.02 9.03 9.02 2.46 0 4.7-.98 6.32-2.58 1.63 1.6 3.86 2.58 6.32 2.58 4.98 0 9.02-4.04 9.02-9.02 0-1.7-.47-3.27-1.28-4.62 2.9-1.5 4.88-4.53 4.88-8.02 0-4.98-4.04-9.02-9.02-9.02-.74 0-1.46.1-2.14.25-1.07-3.8-4.56-6.57-8.7-6.57z" clip-rule="evenodd"/><path fill="#153052" d="M84.4 22.4l-.27 2 1.7.23.5-1.64-1.92-.6zm-4.7 17.3l1.75.94 1.06-1.95-2.05-.86-.76 1.85zM93.94 50.4l1.4-1.43-1.4-1.38-1.4 1.37 1.4 1.42zm14.07-11.06l-.92-1.78-1.88.98 1.1 1.82 1.7-1.02zm-6.28-16.8l-1.93.55.53 1.87 1.88-.45-.46-1.95zM86.32 23c.88-2.9 3.56-5 6.73-5v-4c-4.98 0-9.2 3.3-10.55 7.83L86.31 23zm-3.2 1.32c.34 0 .68.02 1 .07l.57-3.97c-.52-.08-1.05-.1-1.58-.1v4zm-7.02 7.02c0-3.88 3.14-7.02 7.02-7.02v-4c-6.1 0-11.02 4.93-11.02 11.02h4zm4.35 6.5c-2.56-1.05-4.35-3.57-4.35-6.5h-4c0 4.6 2.82 8.55 6.83 10.2l1.52-3.7zm.16 6.14c0-1.2.3-2.35.85-3.34l-3.52-1.9c-.84 1.56-1.32 3.34-1.32 5.24h4zM87.64 51c-3.88 0-7.02-3.14-7.02-7.02h-4C76.6 50.06 81.56 55 87.64 55v-4zm4.92-2c-1.27 1.24-3 2-4.92 2v4c3 0 5.73-1.2 7.72-3.15L92.55 49zm7.72 2c-1.92 0-3.65-.76-4.92-2l-2.8 2.85c2 1.95 4.7 3.15 7.72 3.15v-4zm7.02-7.02c0 3.88-3.15 7.02-7.03 7.02v4c6.1 0 11.02-4.94 11.02-11.02h-4zm-1-3.6c.63 1.05 1 2.28 1 3.6h4c0-2.06-.57-4-1.56-5.65l-3.43 2.05zm4.6-9.04c0 2.7-1.54 5.07-3.8 6.24l1.84 3.55c3.54-1.83 5.96-5.52 5.96-9.8h-4zm-7.02-7.02c3.88 0 7.02 3.14 7.02 7.02h4c0-6.1-4.93-11.02-11.02-11.02v4zm-1.67.2c.54-.13 1.1-.2 1.68-.2v-4c-.9 0-1.78.1-2.62.3l.95 3.9zM93.06 18c3.2 0 5.93 2.16 6.76 5.1l3.86-1.07C102.36 17.4 98.1 14 93.06 14v4z" mask="url(#a)"/><path stroke="#153052" stroke-width="2" d="M100 31.5c0-1.66-.84-2.5-2.5-2.5-1.66 0-3.5.84-3.5 2.5M93 42.5c0-1.66-.84-2.5-2.5-2.5-1.66 0-3.5.84-3.5 2.5"/></svg>