<svg xmlns="http://www.w3.org/2000/svg" xmlns:xlink="http://www.w3.org/1999/xlink" width="128" height="128" viewBox="0 0 128 128">
  <defs>
    <linearGradient id="icon-user-female-cro-121-b" x1="50%" x2="50%" y1="28.133%" y2="100%">
      <stop offset="0%" stop-color="#FFF"/>
      <stop offset="100%" stop-color="#FFF3DD"/>
    </linearGradient>
    <path id="icon-user-female-cro-121-a" d="M59.9519864,59.9999989 C51,57.9999989 40.7833296,55.9999989 35.7672325,55.9999989 C30.5345682,55.9999989 22.6855718,57.3333333 12.2202432,59.9999989 C1.75491466,62.6666667 11,35.9999989 11,23.9999989 C11,11.9999989 17,-1.1208391e-06 35.5,-1.1208391e-06 C54,-1.1208391e-06 60,11.9999989 60,23.9999989 C60,35.9999989 68.9039729,61.9999989 59.9519864,59.9999989 Z"/>
    <linearGradient id="icon-user-female-cro-121-d" x1="50%" x2="50%" y1="28.133%" y2="100%">
      <stop offset="0%" stop-color="#FFF7E8"/>
      <stop offset="100%" stop-color="#FFDDF4"/>
    </linearGradient>
    <path id="icon-user-female-cro-121-c" d="M52,47 C49.9750345,53 43.5763244,60 35,60 C26.4236756,60 21,53 19,47 C17.5,43 16,35 17,28 C17,28 23,27.6666667 35,27 L42,21 L45.1477311,27 C51.0492437,27.6666667 54,28 54,28 C55.0124827,35 53.0124827,43 52,47 Z"/>
    <linearGradient id="icon-user-female-cro-121-e" x1="50%" x2="50%" y1="39.445%" y2="100%">
      <stop offset="0%" stop-color="#FFF"/>
      <stop offset="100%" stop-color="#FFF" stop-opacity="0"/>
    </linearGradient>
    <path id="icon-user-female-cro-121-f" d="M0,94 L0,91.9999229 C0.986905015,81.5736089 7.93019239,72.8005201 19.1442983,68.2911014 C21.8698052,71.431119 27.4883724,80.0007518 36,94 C43.5676324,79.9857119 48.7521591,71.3190452 51.5535803,68 C63.1620423,72.4055033 70.9912242,81.3425516 72,91.9999229 L72,94"/>
  </defs>
  <g fill="none" transform="translate(28 17)">
    <g stroke-linecap="round" stroke-linejoin="round">
      <use fill="#FFF" xlink:href="#icon-user-female-cro-121-a"/>
      <use fill="url(#icon-user-female-cro-121-b)" xlink:href="#icon-user-female-cro-121-a"/>
      <path stroke="#FFF" stroke-width="4" d="M59.5159089,61.9518791 C48.4949308,59.4896372 39.9539842,57.9999989 35.7672325,57.9999989 C30.73791,57.9999989 23.031306,59.3091438 12.7140828,61.9380707 C7.94434951,63.1534453 5.50254934,60.0936606 5.25466612,54.6088141 C5.09285377,51.0284349 5.60455437,47.0325218 7.02048308,38.9155667 C7.08269987,38.5591331 7.08269987,38.5591331 7.14494173,38.203138 C8.55830321,30.1207402 9,27.0160151 9,23.9999989 C9,8.50311112 17.8984701,-2.00000112 35.5,-2.00000112 C53.1015299,-2.00000112 62,8.50311112 62,23.9999989 C62,27.1591291 62.4854678,30.5446912 63.9406977,38.7311732 C63.9433556,38.7461256 63.9433556,38.7461256 63.9460136,38.7610785 C65.4474231,47.2073813 65.9493241,50.7211578 65.9430919,54.2257777 C65.9333321,59.7140951 63.9707758,62.9471592 59.5159089,61.9518791 Z"/>
      <use stroke="#252E31" stroke-width="3" xlink:href="#icon-user-female-cro-121-a"/>
    </g>
    <use fill="#FFF" xlink:href="#icon-user-female-cro-121-c"/>
    <path fill="url(#icon-user-female-cro-121-d)" fill-rule="evenodd" stroke="#FFF" stroke-linejoin="square" stroke-width="4" d="M50.0806839,46.4319765 C51.8132649,39.57362 52.6181362,34.5789239 52.1976528,29.8091179 C52.0385599,29.7911459 51.8379015,29.7684784 51.5624299,29.7373597 C48.9805181,29.445693 48.9805181,29.445693 44.9232282,28.9873597 L43.8693673,28.8683099 L41.3953239,24.1524494 L35.7872773,28.9593464 L35.11094,28.9969207 C26.86094,29.455254 26.86094,29.455254 21.61094,29.7469207 C19.8919743,29.8424188 19.6056598,29.8583252 18.7981361,29.9031876 C18.3354382,35.4368012 19.2923921,42.0840641 20.8973666,46.3675445 C23.1189934,53.0324249 28.4401793,58 35,58 C41.7216186,58 47.925609,52.718844 50.0806839,46.4319765 Z"/>
    <use stroke="#252E31" stroke-width="3" xlink:href="#icon-user-female-cro-121-c"/>
    <g stroke-linecap="round" stroke-linejoin="round">
      <use fill="url(#icon-user-female-cro-121-e)" stroke="#FFF" stroke-width="8" xlink:href="#icon-user-female-cro-121-f"/>
      <use stroke="#252E31" stroke-width="3" xlink:href="#icon-user-female-cro-121-f"/>
    </g>
  </g>
</svg>
